<?xml version="1.0" encoding="utf-8"?>
<!-- Generator: Adobe Illustrator 27.5.0, SVG Export Plug-In . SVG Version: 6.00 Build 0)  -->
<svg version="1.1" xmlns="http://www.w3.org/2000/svg" xmlns:xlink="http://www.w3.org/1999/xlink" x="0px" y="0px"
	 viewBox="0 0 500 500" style="enable-background:new 0 0 500 500;" xml:space="preserve">
<g id="Floor">
	<path id="Floor_00000149344409698440474840000012060942915503208850_" style="fill:#F5F5F5;" d="M77.661,249.73
		c-95.177,54.951-95.175,144.044,0.005,198.995c95.18,54.951,249.496,54.951,344.674,0c95.178-54.951,95.175-144.044-0.005-198.995
		C327.154,194.779,172.838,194.779,77.661,249.73z"/>
</g>
<g id="Clouds">
	<path id="Cloud_00000143598580684753794480000003629319210937689249_" style="fill:#F5F5F5;" d="M128.628,43.836
		c-0.834-0.378-1.826-0.413-2.542-0.469c-0.823-0.065-1.084-0.228-1.242-0.406c-2.002-2.865-5.311-2.974-7.286-2.153
		c-0.484-1.971-2.869-3.682-5.494-3.106c0.09-2.561-3.18-5.313-6.118-5.939c-2.818-0.6-5.274-0.348-6.882,1.505
		c-1.721-3.361-8.468-4.308-12.118-2.53c-2.099,1.023-3.88,2.072-4.751,3.996c-0.575,1.27-0.78,2.116-0.791,3.825
		c-1.423-1.254-4.272-1.593-6.172-0.858c-2.049,0.793-2.204,2.337-2.306,3.908c-2.008-0.506-3.353-0.179-3.73-0.067
		c-1.291,0.383-2.035,1.396-1.858,2.215c-1.021-0.057-3.454,0.769-3.175,1.847c0.314,1.21,3.093,1.088,4.13,1.05
		c0.859-0.032,1.972-0.262,2.905-0.456c0.284,0.14,1.037,0.29,1.511,0.287c1.769-0.013,2.518-0.771,2.803-1.429
		c0.863,1.818,3.937,3.203,6.109,3.759c4.091,1.047,9.879,0.409,12.398-2.648c0.264,0.55,0.706,1.062,1.219,1.484
		c1,0.824,2.349,1.4,3.785,1.534c1.68,0.157,6.188,0.373,7.459-2.299c0.899,1.776,4.913,2.585,7.965,2.152
		c1.142-0.162,2.423-0.558,3.418-1.032c0.802-0.382,1.257-0.754,1.965-1.178c0.602-0.361,0.873-0.357,1.675-0.115
		c2.095,0.632,4.526,0.889,6.664-0.007C129.872,45.989,130.228,44.561,128.628,43.836z"/>
	<path id="Cloud_00000013887760577592348660000001412564945587547291_" style="fill:#F5F5F5;" d="M71.465,68.492
		c-0.658-0.298-1.44-0.326-2.006-0.37c-0.649-0.051-0.855-0.18-0.98-0.32c-1.579-2.26-4.189-2.346-5.747-1.698
		c-0.382-1.555-2.263-2.904-4.334-2.45c0.071-2.02-2.509-4.191-4.826-4.684c-2.223-0.473-4.16-0.274-5.429,1.187
		c-1.358-2.651-6.68-3.398-9.559-1.996c-1.656,0.806-3.061,1.634-3.748,3.152c-0.453,1.002-0.615,1.669-0.624,3.017
		c-1.122-0.989-3.37-1.257-4.869-0.677c-1.616,0.625-1.739,1.843-1.819,3.082c-1.584-0.399-2.645-0.141-2.942-0.053
		c-1.018,0.302-1.605,1.101-1.465,1.747c-0.805-0.045-2.725,0.606-2.504,1.457c0.248,0.955,2.439,0.858,3.258,0.828
		c0.678-0.025,1.555-0.206,2.292-0.36c0.224,0.111,0.818,0.229,1.192,0.226c1.396-0.01,1.986-0.608,2.211-1.127
		c0.681,1.434,3.105,2.527,4.819,2.965c3.227,0.826,7.793,0.323,9.78-2.089c0.208,0.434,0.557,0.838,0.961,1.171
		c0.789,0.649,1.853,1.104,2.986,1.21c1.325,0.124,4.882,0.294,5.884-1.813c0.709,1.401,3.875,2.039,6.283,1.697
		c0.9-0.128,1.911-0.44,2.696-0.814c0.632-0.301,0.992-0.594,1.55-0.929c0.474-0.285,0.688-0.281,1.321-0.091
		c1.652,0.498,3.57,0.702,5.257-0.006C72.447,70.19,72.727,69.064,71.465,68.492z"/>
	<path id="Cloud_00000033363810458544408280000012935136951620854682_" style="fill:#F5F5F5;" d="M374.412,43.836
		c0.834-0.378,1.826-0.413,2.542-0.469c0.823-0.065,1.084-0.228,1.242-0.406c2.002-2.865,5.311-2.974,7.286-2.153
		c0.484-1.971,2.869-3.682,5.494-3.106c-0.09-2.561,3.18-5.313,6.118-5.939c2.818-0.6,5.274-0.348,6.882,1.505
		c1.721-3.361,8.468-4.308,12.118-2.53c2.1,1.023,3.881,2.072,4.751,3.996c0.575,1.27,0.78,2.116,0.791,3.825
		c1.423-1.254,4.272-1.593,6.172-0.858c2.049,0.793,2.204,2.337,2.306,3.908c2.008-0.506,3.353-0.179,3.73-0.067
		c1.291,0.383,2.035,1.396,1.858,2.215c1.021-0.057,3.454,0.769,3.175,1.847c-0.314,1.21-3.092,1.088-4.13,1.05
		c-0.859-0.032-1.972-0.262-2.905-0.456c-0.284,0.14-1.037,0.29-1.511,0.287c-1.769-0.013-2.518-0.771-2.803-1.429
		c-0.863,1.818-3.937,3.203-6.109,3.759c-4.091,1.047-9.879,0.409-12.398-2.648c-0.264,0.55-0.706,1.062-1.219,1.484
		c-1,0.824-2.349,1.4-3.785,1.534c-1.68,0.157-6.189,0.373-7.459-2.299c-0.899,1.776-4.913,2.585-7.965,2.152
		c-1.142-0.162-2.423-0.558-3.418-1.032c-0.802-0.382-1.257-0.754-1.965-1.178c-0.602-0.361-0.873-0.357-1.675-0.115
		c-2.095,0.632-4.526,0.889-6.664-0.007C373.167,45.989,372.811,44.561,374.412,43.836z"/>
	<path id="Cloud_00000182487561249464043360000010211246930107973286_" style="fill:#F5F5F5;" d="M431.574,68.492
		c0.658-0.298,1.44-0.326,2.005-0.37c0.649-0.051,0.855-0.18,0.98-0.32c1.579-2.26,4.189-2.346,5.747-1.698
		c0.382-1.555,2.263-2.904,4.334-2.45c-0.071-2.02,2.508-4.191,4.826-4.684c2.223-0.473,4.16-0.274,5.429,1.187
		c1.358-2.651,6.679-3.398,9.559-1.996c1.656,0.806,3.061,1.634,3.748,3.152c0.453,1.002,0.615,1.669,0.624,3.017
		c1.122-0.989,3.37-1.257,4.869-0.677c1.616,0.625,1.739,1.843,1.819,3.082c1.584-0.399,2.645-0.141,2.942-0.053
		c1.018,0.302,1.605,1.101,1.466,1.747c0.805-0.045,2.725,0.606,2.504,1.457c-0.248,0.955-2.44,0.858-3.258,0.828
		c-0.678-0.025-1.555-0.206-2.292-0.36c-0.224,0.111-0.818,0.229-1.192,0.226c-1.396-0.01-1.987-0.608-2.211-1.127
		c-0.681,1.434-3.105,2.527-4.819,2.965c-3.227,0.826-7.793,0.323-9.78-2.089c-0.208,0.434-0.557,0.838-0.961,1.171
		c-0.789,0.649-1.853,1.104-2.986,1.21c-1.325,0.124-4.882,0.294-5.884-1.813c-0.71,1.401-3.875,2.039-6.283,1.697
		c-0.901-0.128-1.911-0.44-2.696-0.814c-0.633-0.301-0.992-0.594-1.55-0.929c-0.474-0.285-0.689-0.281-1.321-0.091
		c-1.652,0.498-3.57,0.702-5.257-0.006C430.593,70.19,430.312,69.064,431.574,68.492z"/>
</g>
<g id="Shadows">
	<path id="Shadow_00000057113175988260937120000013857954139566502051_" style="fill:#E0E0E0;" d="M235.02,247.468
		c-1.807-1.043-3.691-0.44-5.503,0.611l-125.109,72.234c-1.807,1.042-1.814,2.741,0.002,3.789l163.799,94.592l0,0
		c2.021,1.167,4.511,1.167,6.533,0.001l125.141-72.229c1.46-0.842,1.46-2.949,0-3.791l0,0L235.02,247.468z"/>
	
		<ellipse id="Shadow_00000006669958404210645910000005662693548967381409_" style="fill:#E0E0E0;" cx="98.1" cy="391.866" rx="69.307" ry="40.014"/>
	
		<ellipse id="Shadow_00000173148015502703509270000018241529026360335266_" style="fill:#E0E0E0;" cx="402.274" cy="391.866" rx="69.307" ry="40.014"/>
</g>
<g id="Clipboard">
	<g id="Paper">
		<g id="Board_00000112590452385887133480000008755167242703301053_">
			<g id="Window_00000002342447187431718090000012719936816814764928_">
				<path style="fill:#BA68C8;" d="M390.9,342.78l-118.563,68.534c-1.225,0.708-3.211,0.709-4.436,0.001l-154.796-89.392
					c-1.225-0.707-2.214-2.428-2.208-3.843l0.003-0.519c0.006-1.415,1.003-3.135,2.229-3.842l118.641-68.491
					c1.225-0.707,3.212-0.707,4.437,0l154.716,89.346c1.225,0.708,2.214,2.428,2.209,3.843l-0.003,0.519
					C393.122,340.351,392.125,342.072,390.9,342.78z"/>
				<path style="opacity:0.45;" d="M390.9,342.78l-118.563,68.534c-1.225,0.708-3.211,0.709-4.436,0.001l-154.796-89.392
					c-1.225-0.707-2.214-2.428-2.208-3.843l0.003-0.519c0.006-1.415,1.003-3.135,2.229-3.842l118.641-68.491
					c1.225-0.707,3.212-0.707,4.437,0l154.716,89.346c1.225,0.708,2.214,2.428,2.209,3.843l-0.003,0.519
					C393.122,340.351,392.125,342.072,390.9,342.78z"/>
				<g id="XMLID_00000116932488392177051420000008347753930459223229_">
					<path style="fill:#BA68C8;" d="M236.068,245.149c-1.689-0.975-3.45-0.411-5.143,0.571l-116.938,67.516
						c-1.688,0.974-1.696,2.562,0.002,3.542l153.101,88.414l0,0c1.889,1.091,4.217,1.091,6.106,0.001l116.968-67.512
						c1.364-0.787,1.364-2.756,0-3.543l0,0L236.068,245.149z"/>
				</g>
				<path id="XMLID_00000114782516985719690940000001198993117573082044_" style="opacity:0.3;" d="M236.068,245.149
					c-1.689-0.975-3.45-0.411-5.143,0.571l-116.938,67.516c-1.688,0.974-1.696,2.562,0.002,3.542l153.101,88.414l0,0
					c1.889,1.091,4.217,1.091,6.106,0.001l116.968-67.512c1.364-0.787,1.364-2.756,0-3.543l0,0L236.068,245.149z"/>
				<path style="fill:#BA68C8;" d="M390.921,334.572l-0.754-0.435c1.361,0.786,1.357,2.756-0.006,3.546l-116.968,67.508
					c-0.94,0.552-1.993,0.822-3.045,0.816c-0.03,0.002-0.05,0.001-0.076-0.005l0.001,5.845c0.819-0.001,1.636-0.169,2.263-0.537
					l118.564-68.53c1.228-0.711,2.223-2.434,2.227-3.841l0.001-0.519C393.136,337.005,392.149,335.281,390.921,334.572z"/>
				<path style="opacity:0.2;" d="M390.921,334.572l-0.754-0.435c1.361,0.786,1.357,2.756-0.006,3.546l-116.968,67.508
					c-0.94,0.552-1.993,0.822-3.045,0.816c-0.03,0.002-0.05,0.001-0.076-0.005l0.001,5.845c0.819-0.001,1.636-0.169,2.263-0.537
					l118.564-68.53c1.228-0.711,2.223-2.434,2.227-3.841l0.001-0.519C393.136,337.005,392.149,335.281,390.921,334.572z"/>
			</g>
		</g>
		<path id="Shadow_00000022546534669703443030000001856568415105126840_" style="opacity:0.25;" d="M246.428,254.341
			c-1.74-1.005-3.554-0.423-5.298,0.588l-110.525,63.812c-1.739,1.003-1.747,2.639,0.002,3.648l136.247,78.683l0,0
			c1.946,1.123,4.343,1.124,6.289,0.001l110.556-63.807c1.405-0.811,1.405-2.839,0-3.65l-2.032-1.173L246.428,254.341z"/>
		<g id="Papet_00000139972523615790634070000015106123581312698517_">
			<g>
				<path id="XMLID_00000170967003537413908450000001932291591434745248_" style="fill:#FFFFFF;" d="M270.915,400.149l110.122-63.58
					c0.521-0.301,0.943-1.032,0.943-1.633l0-1.226c0-0.601-0.422-1.332-0.942-1.633l-137.663-79.5c-0.521-0.301-1.365-0.301-1.885,0
					l-110.121,63.578c-0.521,0.3-0.943,1.032-0.943,1.633v1.229c0,0.601,0.422,1.332,0.943,1.633l137.661,79.5
					C269.55,400.45,270.394,400.45,270.915,400.149z"/>
				<path id="XMLID_00000025411305238870139000000002678123686353468602_" style="fill:#E0E0E0;" d="M131.167,316.299
					c-0.092,0.073-0.175,0.159-0.256,0.254c-0.035,0.047-0.074,0.1-0.11,0.146c-0.107,0.156-0.199,0.329-0.268,0.507
					c-0.043,0.118-0.076,0.233-0.092,0.349c-0.011,0.077-0.016,0.158-0.017,0.233l-0.002,1.222c0.003,0.605,0.421,1.332,0.942,1.633
					l137.661,79.499c0.264,0.152,0.604,0.231,0.942,0.226l0.003-3.4c-0.341-0.004-0.685-0.077-0.942-0.226l-137.661-79.499
					C130.921,316.987,130.854,316.596,131.167,316.299z"/>
				<path id="XMLID_00000159452005477952744400000014267344453430578820_" style="fill:#F0F0F0;" d="M381.267,332.25
					c0.275,0.293,0.201,0.669-0.227,0.916l-110.123,63.579c-0.263,0.15-0.602,0.231-0.943,0.226l-0.003,3.4
					c0.341,0.004,0.687-0.072,0.943-0.226l110.123-63.578c0.522-0.294,0.946-1.029,0.94-1.628l0.005-1.229
					C381.978,333.196,381.679,332.596,381.267,332.25z"/>
			</g>
			<g>
				<g>
					<path style="fill:#BA68C8;" d="M263.232,264.05l-19.857-11.473c-0.521-0.301-1.365-0.301-1.885,0l-110.121,63.578
						c-0.521,0.3-0.943,1.031-0.943,1.633v1.229c0,0.601,0.422,1.332,0.943,1.633l16.907,9.77L263.232,264.05z"/>
					<path style="opacity:0.6;fill:#FFFFFF;" d="M263.232,264.05l-19.857-11.473c-0.521-0.301-1.365-0.301-1.885,0l-110.121,63.578
						c-0.521,0.3-0.943,1.031-0.943,1.633v1.229c0,0.601,0.422,1.332,0.943,1.633l16.907,9.77L263.232,264.05z"/>
				</g>
				<path style="fill:#BA68C8;" d="M151.225,328.717l-19.857-11.473c-0.446-0.258-0.514-0.648-0.2-0.945
					c-0.092,0.073-0.175,0.159-0.256,0.254c-0.035,0.047-0.074,0.1-0.11,0.146c-0.107,0.156-0.199,0.329-0.268,0.507
					c-0.043,0.118-0.076,0.233-0.092,0.349c-0.011,0.077-0.016,0.158-0.017,0.233l-0.002,1.222c0.003,0.605,0.421,1.332,0.942,1.633
					l19.86,11.474V328.717z"/>
			</g>
		</g>
		<g id="Clip_00000053536136916125234810000000560498327380976778_">
			<g id="Clip_00000045582385934261869890000012985292720576653747_">
				<g>
					<g>
						<path style="fill:#37474F;" d="M205.742,271.232l-0.001-0.002c0.498-0.282,0.807-0.893,0.807-1.767
							c0-1.737-1.219-3.849-2.724-4.718c-0.757-0.437-1.441-0.474-1.934-0.184l-0.001-0.001l-43.48,25.099l3.853,6.672
							L205.742,271.232z"/>
					</g>
					<path style="fill:#455A64;" d="M160.327,292.979l45.414-26.215c0.498,0.858,0.807,1.826,0.807,2.699
						c0,0.104-0.018,0.191-0.027,0.288l-44.706,25.807L160.327,292.979z"/>
					<path style="fill:#263238;" d="M163.069,294.562c0,1.737-1.22,2.441-2.724,1.573c-1.504-0.868-2.724-2.981-2.724-4.718
						s1.219-2.441,2.724-1.573S163.069,292.825,163.069,294.562z"/>
				</g>
			</g>
			<g id="Clip_00000067957769594285079030000017635896681344098473_">
				<path style="opacity:0.2;" d="M165.979,308.856c-0.837,0-1.711-0.205-2.406-0.608l-11.562-6.677
					c-0.789-0.457-1.24-1.111-1.24-1.794c0.001-0.602,0.355-1.151,0.971-1.508l8.198-4.733c0.328-0.191,0.75-0.078,0.941,0.252
					c0.191,0.33,0.077,0.751-0.252,0.941l-8.197,4.733c-0.177,0.102-0.283,0.22-0.283,0.315c0,0.139,0.171,0.379,0.552,0.6
					l11.562,6.677c0.857,0.497,2.242,0.568,2.962,0.151l22.257-12.849c1.648-0.951,3.086-2.312,4.275-4.045
					c1.142-1.665,2.482-2.971,3.878-3.778c1.079-0.626,2.13-0.933,3.142-0.886c2.332,0.087,4.762-0.561,7.048-1.88l20.206-11.663
					c0.18-0.104,0.289-0.225,0.289-0.323c-0.001-0.138-0.17-0.374-0.548-0.591l-11.572-6.685c-0.859-0.492-2.245-0.563-2.964-0.151
					l-7.217,4.167c-0.201-0.428-0.401-0.767-0.709-1.182l7.238-4.179c1.142-0.655,3.047-0.589,4.339,0.15l11.572,6.686
					c0.785,0.45,1.238,1.1,1.24,1.783c0.001,0.604-0.354,1.158-0.977,1.519l-20.208,11.665c-2.511,1.448-5.206,2.158-7.79,2.063
					c-0.737-0.024-1.547,0.207-2.398,0.702c-1.219,0.705-2.406,1.869-3.433,3.365c-1.305,1.904-2.894,3.404-4.722,4.46
					L167.915,308.4C167.386,308.706,166.696,308.856,165.979,308.856z"/>
				<path style="fill:#455A64;" d="M165.979,307.626c-0.837,0-1.711-0.205-2.406-0.608l-11.562-6.677
					c-0.789-0.457-1.24-1.111-1.24-1.794c0.001-0.602,0.355-1.151,0.971-1.508l8.198-4.733c0.328-0.191,0.75-0.078,0.941,0.252
					c0.191,0.33,0.077,0.751-0.252,0.941l-8.197,4.733c-0.177,0.102-0.283,0.22-0.283,0.315c0,0.139,0.171,0.38,0.552,0.6
					l11.562,6.677c0.857,0.497,2.242,0.568,2.962,0.151l22.257-12.849c1.648-0.951,3.086-2.312,4.275-4.045
					c1.142-1.665,2.482-2.971,3.878-3.778c1.079-0.626,2.13-0.933,3.142-0.886c2.332,0.087,4.762-0.56,7.048-1.88l20.206-11.663
					c0.18-0.104,0.289-0.225,0.289-0.323c-0.001-0.138-0.17-0.374-0.548-0.592l-11.572-6.685c-0.859-0.492-2.245-0.563-2.964-0.151
					l-7.217,4.167c-0.201-0.428-0.401-0.767-0.709-1.182l7.238-4.179c1.142-0.655,3.047-0.589,4.339,0.15l11.572,6.686
					c0.785,0.45,1.238,1.1,1.24,1.783c0.001,0.604-0.354,1.158-0.977,1.519l-20.208,11.665c-2.511,1.448-5.206,2.158-7.79,2.063
					c-0.737-0.024-1.547,0.207-2.398,0.702c-1.219,0.705-2.406,1.869-3.433,3.365c-1.305,1.904-2.894,3.404-4.722,4.46
					l-22.256,12.849C167.386,307.476,166.696,307.626,165.979,307.626z"/>
			</g>
		</g>
		<g>
			<g>
				<path style="fill:#455A64;" d="M185.003,326.648c0.5-0.288,1.005-0.515,1.517-0.68c0.512-0.164,1.023-0.261,1.534-0.29
					c0.511-0.029,1.015,0.011,1.509,0.121c0.497,0.111,0.971,0.297,1.423,0.558c0.461,0.267,0.787,0.542,0.978,0.828
					c0.191,0.286,0.261,0.576,0.206,0.869c-0.056,0.292-0.223,0.588-0.504,0.885c-0.281,0.298-0.672,0.591-1.172,0.879l-1.498,0.865
					l2.389,1.379c0.086,0.05,0.13,0.11,0.129,0.183c0,0.072-0.043,0.133-0.129,0.183l-1.533,0.885
					c-0.086,0.05-0.191,0.075-0.316,0.074c-0.124,0.001-0.23-0.025-0.316-0.074l-7.563-4.366c-0.086-0.05-0.129-0.11-0.129-0.183
					c0-0.071,0.043-0.133,0.129-0.183L185.003,326.648z M187.171,329.628l1.439-0.831c0.328-0.189,0.527-0.388,0.598-0.595
					c0.069-0.207-0.06-0.405-0.388-0.595c-0.327-0.189-0.671-0.264-1.03-0.223c-0.358,0.04-0.701,0.155-1.029,0.344l-1.439,0.832
					L187.171,329.628z"/>
				<path style="fill:#455A64;" d="M192.859,322.113c0.516-0.298,1.03-0.532,1.546-0.703c0.516-0.171,1.024-0.276,1.527-0.314
					c0.505-0.038,1.001-0.003,1.493,0.104c0.492,0.108,0.964,0.293,1.416,0.555c0.586,0.338,0.951,0.689,1.095,1.051
					c0.145,0.363,0.097,0.731-0.146,1.105l4.238,0.771c0.071,0.014,0.125,0.031,0.164,0.054c0.071,0.041,0.105,0.091,0.105,0.148
					c0,0.06-0.035,0.108-0.105,0.149l-1.592,0.919c-0.156,0.09-0.303,0.134-0.439,0.132c-0.137-0.002-0.26-0.013-0.369-0.03
					l-3.804-0.696l-1.077,0.622l2.505,1.446c0.086,0.05,0.13,0.11,0.129,0.183c0,0.072-0.043,0.133-0.129,0.183l-1.534,0.885
					c-0.086,0.05-0.19,0.075-0.315,0.074c-0.124,0.001-0.23-0.024-0.316-0.074l-7.563-4.366c-0.086-0.05-0.129-0.11-0.129-0.183
					c0-0.071,0.042-0.133,0.128-0.183L192.859,322.113z M195.084,324.924l1.322-0.764c0.328-0.19,0.538-0.382,0.628-0.578
					c0.089-0.196-0.03-0.389-0.358-0.578c-0.327-0.189-0.661-0.258-1.001-0.206c-0.338,0.053-0.672,0.173-1,0.362l-1.322,0.764
					L195.084,324.924z"/>
				<path style="fill:#455A64;" d="M200.294,321.349c-0.414-0.267-0.729-0.559-0.947-0.879c-0.22-0.32-0.317-0.651-0.294-0.994
					c0.022-0.342,0.172-0.689,0.445-1.041c0.272-0.351,0.699-0.693,1.276-1.026c0.57-0.329,1.16-0.574,1.773-0.734
					c0.612-0.159,1.215-0.246,1.809-0.26c0.593-0.014,1.167,0.043,1.722,0.169c0.554,0.126,1.061,0.309,1.521,0.548
					c0.352,0.184,0.711,0.383,1.078,0.595c0.367,0.212,0.702,0.415,1.006,0.608c0.415,0.266,0.73,0.559,0.948,0.878
					c0.219,0.32,0.319,0.653,0.3,0.997c-0.02,0.345-0.171,0.693-0.451,1.045c-0.281,0.352-0.707,0.691-1.277,1.021
					c-0.577,0.333-1.168,0.58-1.772,0.74c-0.605,0.16-1.206,0.245-1.803,0.257c-0.597,0.012-1.174-0.047-1.728-0.173
					c-0.554-0.126-1.061-0.309-1.521-0.547c-0.335-0.176-0.687-0.369-1.054-0.581C200.957,321.759,200.614,321.551,200.294,321.349z
					 M207.459,319.551c-0.134-0.086-0.281-0.181-0.445-0.284c-0.163-0.103-0.335-0.207-0.515-0.311
					c-0.18-0.103-0.357-0.201-0.533-0.294c-0.175-0.092-0.334-0.174-0.474-0.246c-0.21-0.104-0.432-0.184-0.661-0.24
					c-0.23-0.056-0.467-0.085-0.709-0.085c-0.242,0.001-0.488,0.032-0.737,0.095c-0.25,0.064-0.495,0.165-0.737,0.305
					c-0.242,0.14-0.418,0.281-0.527,0.426c-0.109,0.145-0.164,0.286-0.164,0.426c0,0.14,0.049,0.276,0.146,0.409
					c0.098,0.133,0.236,0.261,0.416,0.382c0.117,0.086,0.258,0.178,0.421,0.277c0.165,0.099,0.336,0.2,0.516,0.304
					c0.18,0.103,0.356,0.204,0.532,0.301c0.176,0.097,0.342,0.182,0.498,0.254c0.42,0.207,0.879,0.316,1.375,0.327
					c0.496,0.012,0.986-0.122,1.47-0.401c0.484-0.279,0.714-0.562,0.69-0.846C207.997,320.065,207.809,319.798,207.459,319.551z"/>
				<path style="fill:#455A64;" d="M208.84,312.751c0.499-0.288,1.029-0.512,1.592-0.669c0.561-0.158,1.108-0.26,1.639-0.305
					c0.53-0.045,1.018-0.038,1.464,0.021c0.444,0.059,0.796,0.157,1.054,0.298c0.07,0.04,0.105,0.09,0.105,0.148
					c0,0.059-0.031,0.105-0.094,0.142l-1.534,0.886c-0.109,0.063-0.213,0.104-0.31,0.125c-0.098,0.021-0.213,0.032-0.346,0.037
					c-0.047,0-0.123-0.001-0.229-0.004c-0.105-0.002-0.234,0.007-0.386,0.027c-0.153,0.021-0.32,0.059-0.503,0.115
					c-0.185,0.056-0.377,0.143-0.58,0.26c-0.148,0.086-0.282,0.174-0.399,0.264c-0.116,0.09-0.206,0.178-0.269,0.264
					c-0.062,0.086-0.088,0.17-0.076,0.253c0.012,0.084,0.076,0.159,0.193,0.228c0.117,0.067,0.251,0.102,0.404,0.104
					c0.152,0.002,0.349-0.028,0.592-0.091c0.24-0.063,0.537-0.161,0.889-0.291c0.352-0.131,0.784-0.295,1.3-0.494
					c0.515-0.197,0.999-0.351,1.452-0.459c0.452-0.108,0.886-0.167,1.299-0.176c0.414-0.01,0.807,0.033,1.184,0.129
					c0.373,0.094,0.744,0.247,1.111,0.459c0.397,0.229,0.662,0.486,0.796,0.771c0.133,0.284,0.148,0.584,0.047,0.899
					c-0.101,0.315-0.314,0.634-0.638,0.956c-0.324,0.322-0.749,0.634-1.271,0.935c-0.531,0.307-1.084,0.546-1.662,0.717
					c-0.577,0.172-1.14,0.282-1.686,0.331c-0.546,0.05-1.054,0.043-1.522-0.02c-0.468-0.063-0.855-0.178-1.159-0.345
					c-0.07-0.041-0.105-0.09-0.105-0.149c0.001-0.058,0.031-0.105,0.094-0.142l1.534-0.886c0.109-0.063,0.209-0.104,0.3-0.125
					c0.088-0.021,0.192-0.032,0.309-0.037c0.063,0,0.16,0.002,0.293,0.007c0.133,0.005,0.289-0.002,0.469-0.02
					c0.18-0.018,0.377-0.057,0.592-0.118c0.213-0.06,0.439-0.158,0.673-0.294c0.413-0.238,0.714-0.464,0.9-0.676
					c0.188-0.212,0.165-0.385-0.069-0.52c-0.117-0.067-0.266-0.095-0.444-0.081c-0.18,0.014-0.404,0.06-0.674,0.139
					c-0.27,0.079-0.593,0.191-0.972,0.338c-0.379,0.147-0.83,0.316-1.352,0.511c-0.976,0.365-1.851,0.538-2.623,0.52
					c-0.772-0.018-1.494-0.22-2.166-0.607c-0.336-0.194-0.579-0.423-0.731-0.687c-0.152-0.264-0.201-0.547-0.147-0.849
					c0.056-0.302,0.22-0.61,0.492-0.926C207.943,313.348,208.333,313.044,208.84,312.751z"/>
			</g>
			<g>
				<path style="fill:#455A64;" d="M238.966,298.932c0.094,0.063,0.229,0.147,0.404,0.254c0.176,0.105,0.359,0.214,0.55,0.324
					c0.191,0.11,0.381,0.218,0.568,0.321c0.188,0.103,0.336,0.183,0.445,0.236c0.194,0.095,0.401,0.173,0.62,0.236
					c0.219,0.064,0.449,0.098,0.69,0.102c0.243,0.005,0.49-0.023,0.743-0.085c0.254-0.06,0.514-0.167,0.779-0.32
					c0.265-0.153,0.452-0.298,0.562-0.433c0.109-0.136,0.174-0.261,0.193-0.375c0.02-0.115,0.004-0.222-0.047-0.318
					c-0.051-0.097-0.107-0.181-0.17-0.253c-0.085-0.095-0.13-0.17-0.134-0.227c-0.004-0.057,0.061-0.123,0.193-0.199l1.533-0.886
					c0.07-0.04,0.156-0.061,0.258-0.061c0.102,0,0.187,0.02,0.257,0.061c0.391,0.234,0.668,0.507,0.831,0.817
					c0.163,0.311,0.211,0.636,0.141,0.974s-0.249,0.679-0.539,1.021c-0.288,0.343-0.69,0.662-1.205,0.96
					c-0.563,0.324-1.147,0.565-1.756,0.724c-0.61,0.157-1.214,0.243-1.816,0.257c-0.6,0.014-1.179-0.043-1.731-0.169
					c-0.555-0.126-1.059-0.307-1.512-0.541c-0.335-0.176-0.687-0.369-1.053-0.581c-0.367-0.212-0.711-0.419-1.031-0.622
					c-0.413-0.257-0.728-0.547-0.941-0.868c-0.215-0.322-0.313-0.656-0.293-1.001c0.02-0.345,0.169-0.693,0.444-1.048
					c0.278-0.354,0.697-0.692,1.26-1.017c0.515-0.298,1.068-0.529,1.662-0.696c0.594-0.167,1.182-0.271,1.768-0.312
					c0.586-0.04,1.146-0.013,1.686,0.081c0.538,0.095,1.011,0.255,1.417,0.48c0.07,0.04,0.105,0.09,0.105,0.148
					c0,0.059-0.035,0.108-0.105,0.149l-1.533,0.885c-0.133,0.077-0.248,0.114-0.346,0.111c-0.098-0.002-0.229-0.027-0.393-0.077
					c-0.125-0.036-0.271-0.068-0.439-0.099c-0.168-0.029-0.352-0.038-0.55-0.026c-0.199,0.011-0.415,0.048-0.649,0.111
					c-0.234,0.064-0.484,0.171-0.749,0.324c-0.266,0.153-0.451,0.303-0.557,0.449c-0.105,0.147-0.153,0.29-0.146,0.43
					c0.009,0.14,0.066,0.273,0.176,0.398C238.667,298.7,238.803,298.82,238.966,298.932z"/>
				<path style="fill:#455A64;" d="M244.972,295.397c-0.413-0.266-0.73-0.559-0.947-0.878c-0.22-0.32-0.317-0.651-0.293-0.994
					c0.023-0.343,0.172-0.689,0.444-1.041c0.273-0.352,0.699-0.693,1.276-1.027c0.57-0.329,1.161-0.573,1.773-0.733
					c0.613-0.16,1.216-0.247,1.81-0.26c0.592-0.014,1.166,0.043,1.721,0.169c0.554,0.126,1.062,0.309,1.521,0.547
					c0.352,0.186,0.711,0.383,1.078,0.595c0.366,0.212,0.701,0.415,1.006,0.608c0.414,0.267,0.731,0.56,0.948,0.879
					c0.219,0.32,0.318,0.652,0.299,0.997c-0.02,0.345-0.17,0.692-0.45,1.044c-0.281,0.352-0.707,0.691-1.277,1.021
					c-0.577,0.334-1.168,0.581-1.772,0.74c-0.605,0.16-1.206,0.246-1.804,0.257c-0.597,0.012-1.173-0.046-1.727-0.172
					c-0.554-0.126-1.062-0.309-1.523-0.548c-0.335-0.176-0.686-0.369-1.053-0.581C245.636,295.807,245.293,295.6,244.972,295.397z
					 M252.138,293.599c-0.133-0.085-0.281-0.181-0.445-0.284c-0.164-0.104-0.335-0.207-0.516-0.311
					c-0.179-0.103-0.356-0.201-0.532-0.294c-0.176-0.093-0.334-0.175-0.475-0.247c-0.21-0.104-0.431-0.184-0.661-0.239
					c-0.23-0.057-0.467-0.085-0.709-0.085s-0.487,0.031-0.736,0.095c-0.25,0.064-0.496,0.165-0.738,0.305
					c-0.242,0.14-0.417,0.281-0.526,0.425c-0.109,0.145-0.165,0.286-0.165,0.426c0,0.141,0.049,0.276,0.147,0.41
					c0.098,0.132,0.236,0.26,0.415,0.381c0.117,0.086,0.258,0.179,0.422,0.277c0.164,0.1,0.336,0.201,0.515,0.305
					c0.181,0.103,0.357,0.203,0.533,0.301c0.176,0.097,0.342,0.182,0.498,0.253c0.42,0.207,0.879,0.316,1.375,0.328
					c0.495,0.011,0.985-0.123,1.469-0.402c0.484-0.279,0.714-0.561,0.691-0.845C252.676,294.113,252.489,293.847,252.138,293.599z"
					/>
				<path style="fill:#455A64;" d="M264.114,290.281c-0.133,0.076-0.275,0.118-0.428,0.125c-0.152,0.007-0.259,0.006-0.321-0.003
					l-6.686-0.765l3.957,2.285c0.087,0.05,0.13,0.11,0.129,0.182c0,0.072-0.043,0.134-0.129,0.183l-1.533,0.886
					c-0.086,0.05-0.191,0.074-0.316,0.074c-0.124,0.001-0.23-0.024-0.316-0.074l-7.563-4.366c-0.086-0.05-0.128-0.11-0.128-0.183
					c0-0.072,0.043-0.133,0.129-0.183l1.217-0.703c0.133-0.076,0.275-0.118,0.428-0.125c0.152-0.006,0.259-0.006,0.322,0.004
					l6.686,0.764l-3.959-2.285c-0.086-0.049-0.128-0.109-0.128-0.182c0-0.072,0.043-0.133,0.129-0.183l1.534-0.886
					c0.085-0.05,0.19-0.074,0.315-0.074s0.229,0.024,0.315,0.074l7.563,4.366c0.087,0.05,0.13,0.111,0.129,0.183
					c0,0.072-0.043,0.133-0.129,0.183L264.114,290.281z"/>
				<path style="fill:#455A64;" d="M262.018,281.893c0.5-0.289,1.031-0.512,1.593-0.67c0.563-0.157,1.108-0.259,1.639-0.305
					c0.531-0.044,1.019-0.038,1.463,0.021c0.445,0.059,0.796,0.158,1.055,0.298c0.07,0.041,0.104,0.09,0.104,0.149
					c0,0.059-0.031,0.106-0.094,0.142l-1.533,0.886c-0.109,0.064-0.213,0.105-0.31,0.125c-0.098,0.021-0.212,0.033-0.345,0.037
					c-0.048,0-0.124-0.001-0.229-0.003c-0.104-0.002-0.232,0.007-0.385,0.027c-0.153,0.02-0.32,0.059-0.504,0.114
					c-0.184,0.057-0.377,0.144-0.58,0.261c-0.147,0.086-0.28,0.173-0.397,0.264c-0.117,0.09-0.207,0.178-0.27,0.264
					c-0.063,0.085-0.089,0.17-0.076,0.253c0.013,0.084,0.076,0.159,0.194,0.227c0.116,0.067,0.251,0.103,0.402,0.105
					c0.152,0.002,0.35-0.029,0.592-0.092c0.242-0.063,0.538-0.16,0.889-0.291c0.353-0.13,0.786-0.295,1.3-0.493
					c0.517-0.198,0.999-0.352,1.452-0.46c0.453-0.107,0.887-0.166,1.299-0.176c0.414-0.009,0.809,0.034,1.184,0.129
					c0.375,0.095,0.745,0.248,1.112,0.46c0.397,0.229,0.663,0.486,0.795,0.77c0.134,0.285,0.149,0.584,0.048,0.899
					c-0.102,0.316-0.315,0.635-0.638,0.957c-0.325,0.321-0.748,0.634-1.27,0.935c-0.531,0.307-1.086,0.545-1.663,0.717
					c-0.578,0.171-1.139,0.281-1.686,0.331c-0.546,0.05-1.054,0.043-1.522-0.021c-0.469-0.063-0.854-0.178-1.159-0.345
					c-0.07-0.04-0.105-0.09-0.106-0.148c0.001-0.059,0.032-0.106,0.095-0.143l1.533-0.885c0.109-0.064,0.209-0.104,0.299-0.125
					c0.09-0.021,0.193-0.032,0.311-0.037c0.063,0,0.16,0.002,0.292,0.007c0.133,0.004,0.29-0.002,0.468-0.02
					c0.18-0.019,0.377-0.058,0.592-0.118c0.215-0.061,0.439-0.159,0.674-0.294c0.413-0.239,0.715-0.464,0.9-0.677
					c0.188-0.211,0.165-0.385-0.069-0.519c-0.117-0.067-0.266-0.095-0.445-0.081c-0.18,0.014-0.404,0.06-0.673,0.139
					c-0.27,0.078-0.594,0.19-0.973,0.337c-0.377,0.148-0.829,0.317-1.352,0.511c-0.976,0.365-1.849,0.539-2.623,0.521
					c-0.771-0.018-1.493-0.221-2.165-0.608c-0.335-0.193-0.579-0.422-0.732-0.686c-0.152-0.264-0.202-0.547-0.147-0.849
					c0.056-0.302,0.219-0.61,0.492-0.926C261.122,282.49,261.511,282.186,262.018,281.893z"/>
			</g>
			<g>
				<g>
					<g>
						<path style="fill:#E0E0E0;" d="M199.326,340.151c-0.346,0-0.682-0.179-0.867-0.5c-0.276-0.479-0.112-1.09,0.366-1.366
							l34.03-19.647c0.476-0.275,1.089-0.113,1.366,0.366c0.276,0.479,0.112,1.09-0.366,1.366l-34.03,19.647
							C199.668,340.108,199.496,340.151,199.326,340.151z"/>
					</g>
					<g>
						<path style="fill:#E0E0E0;" d="M204.112,342.915c-0.346,0-0.682-0.179-0.867-0.5c-0.276-0.479-0.112-1.09,0.366-1.366
							l20.559-11.87c0.476-0.276,1.089-0.113,1.366,0.366c0.276,0.479,0.112,1.09-0.366,1.366l-20.559,11.87
							C204.454,342.872,204.282,342.915,204.112,342.915z"/>
					</g>
					<path style="fill:#BA68C8;" d="M194.998,341.649c0.848,0.49,0.848,1.283,0,1.773c-0.848,0.49-2.222,0.49-3.07,0
						c-0.848-0.49-0.848-1.283,0-1.773C192.776,341.159,194.15,341.159,194.998,341.649z"/>
				</g>
				<g>
					<g>
						<path style="fill:#E0E0E0;" d="M213.36,348.254c-0.346,0-0.682-0.179-0.867-0.5c-0.276-0.478-0.112-1.09,0.366-1.366
							l34.031-19.648c0.477-0.276,1.09-0.113,1.366,0.366c0.276,0.479,0.112,1.09-0.366,1.366l-34.031,19.648
							C213.702,348.211,213.53,348.254,213.36,348.254z"/>
					</g>
					<g>
						<path style="fill:#E0E0E0;" d="M218.146,351.017c-0.346,0-0.682-0.179-0.867-0.5c-0.276-0.478-0.112-1.09,0.366-1.366
							l20.559-11.869c0.476-0.276,1.089-0.113,1.366,0.366c0.276,0.478,0.112,1.09-0.366,1.366l-20.559,11.869
							C218.488,350.974,218.316,351.017,218.146,351.017z"/>
					</g>
					<path style="fill:#BA68C8;" d="M209.033,349.752c0.848,0.49,0.848,1.283,0,1.773c-0.848,0.49-2.223,0.49-3.07,0
						c-0.848-0.49-0.848-1.283,0-1.773C206.81,349.262,208.185,349.262,209.033,349.752z"/>
				</g>
				<g>
					<g>
						<path style="fill:#E0E0E0;" d="M227.395,356.357c-0.346,0-0.682-0.179-0.867-0.5c-0.276-0.479-0.112-1.09,0.366-1.366
							l34.03-19.648c0.477-0.276,1.089-0.113,1.366,0.366c0.276,0.478,0.112,1.09-0.366,1.366l-34.03,19.647
							C227.737,356.314,227.565,356.357,227.395,356.357z"/>
					</g>
					<g>
						<path style="fill:#E0E0E0;" d="M232.181,359.12c-0.346,0-0.682-0.179-0.867-0.5c-0.276-0.479-0.112-1.09,0.366-1.366
							l20.559-11.869c0.476-0.277,1.089-0.113,1.366,0.366c0.276,0.479,0.112,1.09-0.366,1.366l-20.559,11.869
							C232.523,359.077,232.351,359.12,232.181,359.12z"/>
					</g>
					<path style="fill:#BA68C8;" d="M223.068,357.855c0.848,0.49,0.848,1.283,0,1.773c-0.848,0.49-2.223,0.49-3.07,0
						c-0.848-0.49-0.848-1.283,0-1.773C220.845,357.365,222.22,357.365,223.068,357.855z"/>
				</g>
				<g>
					<g>
						<path style="fill:#E0E0E0;" d="M241.429,364.46c-0.346,0-0.682-0.179-0.867-0.5c-0.276-0.479-0.112-1.09,0.366-1.366
							l34.031-19.647c0.475-0.275,1.089-0.113,1.366,0.366c0.276,0.479,0.112,1.09-0.366,1.366l-34.031,19.647
							C241.771,364.417,241.599,364.46,241.429,364.46z"/>
					</g>
					<g>
						<path style="fill:#E0E0E0;" d="M246.215,367.223c-0.346,0-0.682-0.179-0.867-0.5c-0.276-0.479-0.112-1.09,0.366-1.366
							l20.559-11.87c0.476-0.276,1.089-0.113,1.366,0.366c0.276,0.479,0.112,1.09-0.366,1.366l-20.559,11.87
							C246.557,367.18,246.385,367.223,246.215,367.223z"/>
					</g>
					<path style="fill:#BA68C8;" d="M237.102,365.958c0.848,0.49,0.848,1.283,0,1.773c-0.848,0.49-2.223,0.49-3.07,0
						c-0.848-0.489-0.848-1.283,0-1.773C234.88,365.468,236.254,365.468,237.102,365.958z"/>
				</g>
				<g>
					<g>
						<path style="fill:#E0E0E0;" d="M256.155,372.961c-0.346,0-0.682-0.179-0.867-0.5c-0.276-0.479-0.112-1.09,0.366-1.366
							l34.03-19.647c0.477-0.276,1.09-0.113,1.366,0.366c0.276,0.479,0.112,1.09-0.366,1.366l-34.03,19.647
							C256.497,372.918,256.325,372.961,256.155,372.961z"/>
					</g>
					<g>
						<path style="fill:#E0E0E0;" d="M260.941,375.724c-0.346,0-0.682-0.179-0.867-0.5c-0.276-0.478-0.112-1.09,0.366-1.366
							l20.559-11.869c0.477-0.276,1.09-0.113,1.366,0.366c0.276,0.478,0.112,1.09-0.366,1.366L261.44,375.59
							C261.283,375.681,261.111,375.724,260.941,375.724z"/>
					</g>
					<path style="fill:#BA68C8;" d="M251.827,374.459c0.848,0.49,0.848,1.283,0,1.773c-0.848,0.49-2.222,0.49-3.07,0
						c-0.848-0.49-0.848-1.283,0-1.773C249.605,373.97,250.979,373.97,251.827,374.459z"/>
				</g>
			</g>
			<g>
				<g>
					<g>
						<path style="fill:#E0E0E0;" d="M253.006,309.21c-0.346,0-0.682-0.179-0.867-0.5c-0.276-0.479-0.112-1.09,0.366-1.366
							l34.03-19.647c0.477-0.276,1.089-0.113,1.366,0.366c0.276,0.479,0.112,1.09-0.366,1.366l-34.03,19.648
							C253.348,309.167,253.176,309.21,253.006,309.21z"/>
					</g>
					<g>
						<path style="fill:#E0E0E0;" d="M257.793,311.973c-0.346,0-0.682-0.179-0.867-0.5c-0.276-0.479-0.112-1.09,0.366-1.366
							l20.559-11.87c0.476-0.276,1.089-0.113,1.366,0.366c0.276,0.479,0.112,1.09-0.366,1.366l-20.559,11.87
							C258.134,311.93,257.962,311.973,257.793,311.973z"/>
					</g>
					<path style="fill:#BA68C8;" d="M248.679,310.707c0.848,0.49,0.848,1.283,0,1.773c-0.848,0.49-2.222,0.49-3.07,0
						c-0.848-0.49-0.848-1.283,0-1.773C246.456,310.218,247.831,310.218,248.679,310.707z"/>
				</g>
				<g>
					<g>
						<path style="fill:#E0E0E0;" d="M267.041,317.312c-0.346,0-0.682-0.179-0.867-0.5c-0.276-0.479-0.112-1.09,0.366-1.366
							l34.031-19.647c0.476-0.277,1.089-0.113,1.366,0.366c0.276,0.478,0.112,1.09-0.366,1.366l-34.031,19.647
							C267.382,317.269,267.211,317.312,267.041,317.312z"/>
					</g>
					<g>
						<path style="fill:#E0E0E0;" d="M271.827,320.076c-0.346,0-0.682-0.179-0.867-0.5c-0.276-0.479-0.112-1.09,0.366-1.366
							l20.559-11.869c0.477-0.276,1.089-0.113,1.366,0.366c0.276,0.478,0.112,1.09-0.366,1.366l-20.559,11.869
							C272.168,320.033,271.997,320.076,271.827,320.076z"/>
					</g>
					<path style="fill:#BA68C8;" d="M262.713,318.81c0.848,0.49,0.848,1.283,0,1.773c-0.848,0.49-2.223,0.49-3.07,0
						c-0.848-0.489-0.848-1.283,0-1.773C260.491,318.321,261.866,318.321,262.713,318.81z"/>
				</g>
				<g>
					<g>
						<path style="fill:#E0E0E0;" d="M281.076,325.416c-0.346,0-0.682-0.179-0.867-0.5c-0.276-0.479-0.112-1.09,0.366-1.366
							l34.03-19.647c0.476-0.275,1.089-0.113,1.366,0.366c0.276,0.479,0.112,1.09-0.366,1.366l-34.03,19.647
							C281.418,325.373,281.246,325.416,281.076,325.416z"/>
					</g>
					<g>
						<path style="fill:#E0E0E0;" d="M285.862,328.178c-0.346,0-0.682-0.179-0.867-0.5c-0.276-0.479-0.112-1.09,0.366-1.366
							l20.559-11.869c0.476-0.276,1.089-0.113,1.366,0.366c0.276,0.478,0.112,1.09-0.366,1.366l-20.559,11.869
							C286.204,328.135,286.032,328.178,285.862,328.178z"/>
					</g>
					<path style="fill:#BA68C8;" d="M276.748,326.913c0.848,0.49,0.848,1.283,0,1.773c-0.848,0.49-2.223,0.49-3.07,0
						c-0.848-0.49-0.848-1.283,0-1.773C274.526,326.424,275.9,326.424,276.748,326.913z"/>
				</g>
				<g>
					<g>
						<path style="fill:#E0E0E0;" d="M295.11,333.518c-0.346,0-0.682-0.179-0.867-0.5c-0.276-0.478-0.112-1.09,0.366-1.366
							l34.031-19.647c0.477-0.276,1.089-0.113,1.366,0.366c0.276,0.478,0.112,1.09-0.366,1.366l-34.031,19.648
							C295.452,333.475,295.28,333.518,295.11,333.518z"/>
					</g>
					<g>
						<path style="fill:#E0E0E0;" d="M299.896,336.282c-0.346,0-0.682-0.179-0.867-0.5c-0.276-0.478-0.112-1.09,0.366-1.366
							l20.559-11.87c0.476-0.276,1.089-0.113,1.366,0.366c0.276,0.479,0.112,1.09-0.366,1.366l-20.559,11.87
							C300.238,336.239,300.066,336.282,299.896,336.282z"/>
					</g>
					<path style="fill:#BA68C8;" d="M290.783,335.016c0.848,0.49,0.848,1.283,0,1.773c-0.848,0.49-2.223,0.49-3.07,0
						c-0.848-0.49-0.848-1.283,0-1.773C288.56,334.527,289.935,334.527,290.783,335.016z"/>
				</g>
				<g>
					<g>
						<path style="fill:#E0E0E0;" d="M309.836,342.02c-0.346,0-0.682-0.179-0.867-0.5c-0.276-0.478-0.112-1.09,0.366-1.366
							l34.03-19.648c0.476-0.277,1.089-0.113,1.366,0.366c0.276,0.478,0.112,1.09-0.366,1.366l-34.03,19.648
							C310.177,341.977,310.005,342.02,309.836,342.02z"/>
					</g>
					<g>
						<path style="fill:#E0E0E0;" d="M314.621,344.783c-0.346,0-0.682-0.179-0.867-0.5c-0.276-0.479-0.112-1.09,0.366-1.366
							l20.56-11.869c0.476-0.276,1.089-0.113,1.366,0.366c0.276,0.478,0.112,1.09-0.366,1.366l-20.56,11.869
							C314.962,344.74,314.791,344.783,314.621,344.783z"/>
					</g>
					<path style="fill:#BA68C8;" d="M305.508,343.518c0.848,0.49,0.848,1.283,0,1.773c-0.848,0.49-2.223,0.49-3.07,0
						c-0.848-0.49-0.848-1.283,0-1.773C303.285,343.028,304.66,343.028,305.508,343.518z"/>
				</g>
			</g>
		</g>
	</g>
</g>
<g id="Plants">
	<g id="Plants_2_">
		<g id="XMLID_00000122681424372471460940000016551153282280464021_">
			<path id="XMLID_713_" style="fill:#BA68C8;" d="M53.183,368.692c0,0,7.935-28.274,0.13-58.76
				c-4.363-17.04-14.402-25.707-20.946-27.073c-7.335-1.53-15.517,4.756-9.999,16.247c5.244,10.919,16.911,16.279,21.365,43.87
				c1.899,11.765,1.791,20.797,1.478,25.709c-0.116,1.811,1.762,3.069,3.389,2.267L53.183,368.692z"/>
			<path id="XMLID_00000011729592207365380610000012392462634378196385_" style="opacity:0.5;fill:#FFFFFF;" d="M53.183,368.692
				c0,0,7.935-28.274,0.13-58.76c-4.363-17.04-14.402-25.707-20.946-27.073c-7.335-1.53-15.517,4.756-9.999,16.247
				c5.244,10.919,16.911,16.279,21.365,43.87c1.899,11.765,1.791,20.797,1.478,25.709c-0.116,1.811,1.762,3.069,3.389,2.267
				L53.183,368.692z"/>
			<g id="XMLID_704_">
				<path style="fill:#FFFFFF;" d="M49.216,361.936c-0.253-0.05-0.417-0.293-0.367-0.546c6.407-32.595-6.761-61.653-18.158-71.876
					c-0.191-0.172-0.207-0.466-0.036-0.658c0.174-0.193,0.466-0.208,0.658-0.036c11.56,10.371,24.927,39.797,18.449,72.749
					C49.713,361.822,49.469,361.985,49.216,361.936z"/>
			</g>
		</g>
		<g id="XMLID_692_">
			<path id="XMLID_00000075858620288700233240000016765509659786501801_" style="fill:#BA68C8;" d="M47.845,371.292
				c-1.423,0.716-3.123-0.158-3.375-1.731c-1.077-6.725-4.603-13.866-11.636-21.693c-8.18-9.103-19.796-17.817-17.295-24.975
				c2.501-7.158,12.121-4.734,18.602-0.079c6.48,4.655,20.426,21.35,14.856,47.898L47.845,371.292z"/>
			<path id="XMLID_00000051377867474264271700000008608677760996313533_" style="opacity:0.65;fill:#FFFFFF;" d="M47.845,371.292
				c-1.423,0.716-3.123-0.158-3.375-1.731c-1.077-6.725-4.603-13.866-11.636-21.693c-8.18-9.103-19.796-17.817-17.295-24.975
				c2.501-7.158,12.121-4.734,18.602-0.079c6.48,4.655,20.426,21.35,14.856,47.898L47.845,371.292z"/>
			<g id="XMLID_695_">
				<path style="fill:#FFFFFF;" d="M47.172,371.771c-0.216-0.042-0.401-0.236-0.375-0.462c2.336-20.069-12.594-43.844-24.263-48.97
					c-0.236-0.103-0.333-0.386-0.224-0.618c0.108-0.234,0.372-0.31,0.619-0.224c11.661,4.058,28.067,29.756,24.799,49.825
					c-0.041,0.254-0.214,0.463-0.472,0.459C47.228,371.78,47.2,371.776,47.172,371.771z"/>
			</g>
		</g>
	</g>
	<g id="Plants_00000126281898382776825070000016713954410699549866_">
		<g id="XMLID_00000045609664974981714300000000282468940728787352_">
			<path id="XMLID_00000100376764538378846320000000525631500849900932_" style="fill:#BA68C8;" d="M447.191,368.692
				c0,0-7.935-28.274-0.13-58.76c4.363-17.04,14.402-25.707,20.946-27.073c7.335-1.53,15.517,4.756,9.999,16.247
				c-5.244,10.919-16.911,16.279-21.365,43.87c-1.899,11.765-1.791,20.797-1.478,25.709c0.116,1.811-1.762,3.069-3.389,2.267
				L447.191,368.692z"/>
			<path id="XMLID_00000077296783046567496660000002805281470223385791_" style="opacity:0.5;fill:#FFFFFF;" d="M447.191,368.692
				c0,0-7.935-28.274-0.13-58.76c4.363-17.04,14.402-25.707,20.946-27.073c7.335-1.53,15.517,4.756,9.999,16.247
				c-5.244,10.919-16.911,16.279-21.365,43.87c-1.899,11.765-1.791,20.797-1.478,25.709c0.116,1.811-1.762,3.069-3.389,2.267
				L447.191,368.692z"/>
			<g id="XMLID_00000152961751897134760600000006094936519754062500_">
				<path style="fill:#FFFFFF;" d="M451.158,361.936c0.253-0.05,0.417-0.293,0.367-0.546c-6.407-32.595,6.762-61.653,18.158-71.876
					c0.191-0.172,0.207-0.466,0.036-0.658c-0.174-0.193-0.466-0.208-0.658-0.036c-11.56,10.371-24.927,39.797-18.449,72.749
					C450.661,361.822,450.905,361.985,451.158,361.936z"/>
			</g>
		</g>
		<g id="XMLID_00000093178128675053317410000009764685737322242187_">
			<path id="XMLID_00000164479327021606124870000005244827616089781407_" style="fill:#BA68C8;" d="M452.528,371.292
				c1.423,0.716,3.123-0.158,3.375-1.731c1.077-6.725,4.603-13.866,11.635-21.693c8.18-9.103,19.796-17.817,17.295-24.975
				c-2.501-7.158-12.121-4.734-18.602-0.079c-6.48,4.655-20.426,21.35-14.856,47.898L452.528,371.292z"/>
			<path id="XMLID_00000015321574225633268870000003991238594657378495_" style="opacity:0.65;fill:#FFFFFF;" d="M452.528,371.292
				c1.423,0.716,3.123-0.158,3.375-1.731c1.077-6.725,4.603-13.866,11.635-21.693c8.18-9.103,19.796-17.817,17.295-24.975
				c-2.501-7.158-12.121-4.734-18.602-0.079c-6.48,4.655-20.426,21.35-14.856,47.898L452.528,371.292z"/>
			<g id="XMLID_00000055701175491704018280000016395400165252949163_">
				<path style="fill:#FFFFFF;" d="M453.202,371.771c0.216-0.042,0.401-0.236,0.375-0.462c-2.336-20.069,12.593-43.844,24.263-48.97
					c0.236-0.103,0.333-0.386,0.224-0.618c-0.108-0.234-0.372-0.31-0.619-0.224c-11.661,4.058-28.067,29.756-24.799,49.825
					c0.041,0.254,0.214,0.463,0.472,0.459C453.146,371.78,453.173,371.776,453.202,371.771z"/>
			</g>
		</g>
	</g>
</g>
<g id="Character_2">
	<g id="Character_00000052815964329390485510000009328361168202754960_">
		<g id="Top_00000101792050597683479690000001364583170000028052_">
			<path style="fill:#F0997A;" d="M286.185,176.831c-1.151,0.481-0.678,1.572,0.439,1.857c2.653,0.678,5.337-1.329,7.134-1.522
				c0.449-0.002,6.394,0.801,7.2,1.747c-1.345,0.258-5.648,0.728-6.977,1.057c-0.384,0.095-1.366,0.531-4.362,1.891
				c-0.461,0.209-1.204,0.496-1.479,0.842c-0.252,0.317-0.113,1.225,0.935,1.486c1.877,0.469,3.756-0.904,5.642-1.337
				c0.908-0.234,3.826-0.809,5.495,0.17c-2.626,0.888-3.983,1.951-7.132,4.592c-0.369,0.31-0.296,0.563-0.099,0.806
				c0.284,0.351,0.868,0.567,1.447,0.496c1.285-0.157,2.487-1.286,4.106-2.118c1.619-0.832,3.662-1.056,5.482-1.014
				c0.692,0.016,1.381,0.176,2.009,0.468c0.791,0.368,1.472,0.933,2.22,1.382c2.967,1.78,7.038,1.485,9.718-0.703
				c0.175-0.143,0.352-0.304,0.424-0.518c0.128-0.379-0.109-0.777-0.349-1.096c-2.361-3.142-5.985-5.018-9.232-7.234
				c-1.068-0.729-9.198-6.054-9.525-6.195c-0.143-0.061-9.299,3.247-9.563,3.385C288.906,175.7,287.295,176.367,286.185,176.831z"/>
			<g>
				<path style="fill:#FFBDA7;" d="M363.146,151.374c-1.85,2.685-15.899,22.255-15.899,22.255s-20.306,2.887-24.672,3.188
					c-6.014,0.415-9.461-1.74-12.507-3.607c-4.368-2.677-5.123-2.456-7.785-2.385c-1.653,0.044-5.668-0.283-5.811-0.29
					c-0.611-0.027-1.094,0.235-1.669,0.428c-0.293,0.098-1.482,0.569-1.77,0.682c-1.655,0.649-2.639,1.139-4.295,1.789
					c-0.51,0.2-1.024,0.402-1.479,0.706c-0.098,0.065-0.197,0.141-0.241,0.25c-0.085,0.21,0.07,0.438,0.234,0.595
					c0.778,0.746,1.931,0.987,3.005,0.901c1.074-0.086,2.101-0.459,3.124-0.798c0.631-0.209,0.958-0.37,2.235-0.786
					c0.319-0.104,0.693-0.162,1.6-0.004c4.349,0.759,5.16,1.27,7.472,2.03c-2.967,0.904-4.637,1.046-6.753,0.656
					s-2.156,2.033,0.405,3.24c2.948,1.389,5.204,0.31,9.068,2.242c3.864,1.933,3.434,6.7,9.19,6.452
					c2.441-0.176,5.382-0.843,9.434-0.408c5.564,0.598,22.889,2.417,26.34,2.305c7.54-0.246,7.832-1.02,15.322-14.074
					c10.57-18.419,12.128-22.019,12.128-22.019l0.697-16.419C375.324,138.797,370.471,140.747,363.146,151.374z"/>
			</g>
			<path style="fill:#37474F;" d="M381.562,137.581c-6.708,0.583-11.752,2.505-18.716,13.072
				c-5.915,8.975-15.615,22.557-15.615,22.557l-6.925,0.977c0,0,2.081,2.46,2.411,7.38c0.308,4.588-1.191,8.695-1.191,8.695
				s0.543,0.052,7.382,0.6c6.839,0.547,9.089-0.411,10.686-1.181c1.597-0.77,3.494-2.503,6.326-6.192
				c4.399-5.73,14.6-19.186,14.6-19.186L381.562,137.581z"/>
			<path style="fill:#F0997A;" d="M304.688,176.327c1.057-0.341,3.528-0.408,4.057-0.346c0.529,0.062-0.281-0.88-2.431-0.978
				c-2.15-0.098-3.274,0.829-3.937,0.564L304.688,176.327z"/>
		</g>
		<g id="Bottom_00000183225284681893115590000009528786667197687959_">
			<g>
				<path style="fill:#FFBDA7;" d="M387.466,369.161l2.678-16.687l-20.37-3.303c0,0,0.118,13.3-0.318,19.375
					c-0.206,2.863-2.483,8.146-2.483,8.146s7.848,4.693,12.129,3.18c4.281-1.513,7.405-8.07,7.37-9.304L387.466,369.161z"/>
				<path style="fill:#263238;" d="M342.453,395.761c-0.286-0.002-0.559,2.67,0.989,4.02c1.787,1.559,7.503,4.596,14.458,3.745
					c6.955-0.851,10.728-2.977,13.519-5.286c2.79-2.31,6.702-5.568,9.849-6.239c2.923-0.624,6.892-2.965,7.83-3.861
					c0.938-0.897,0.824-4.914,0.824-4.914L342.453,395.761z"/>
				<path id="XMLID_00000090989878814307712970000000696283200499202189_" style="fill:#455A64;" d="M387.712,367.567
					c0,0,0.369,0.2,0.545,1.131c0.21,1.108,0.429,4.328,0.882,6.148c0.629,2.529,1.037,7.707,0.647,9.761
					c-0.391,2.055-5.95,4.49-8.996,5.628c-3.113,1.163-6.717,3.579-9.883,6.16c-3.277,2.672-10.159,5.427-14.69,5.363
					c-5.361-0.077-11.39-1.855-12.765-4.352c-1.699-3.089-2.933-6.672,5.03-10.302c1.507-0.687,6.805-3.779,8.61-4.901
					c4.886-3.035,8.325-5.827,10.588-11.242c0.264-0.633,0.542-1.334,1.149-1.653c0.465-0.244,1.025-0.206,1.546-0.129
					c1.324,0.195,6.603,0.96,7.808,1.544c1.065,0.516,2.576,1.119,2.548,2.486c-0.01,0.475-0.149,0.938-0.305,1.387
					c-0.096,0.278-0.172,0.649,0.071,0.816c0.23,0.157,0.536-0.018,0.745-0.202c0.835-0.74,1.449-1.692,2.152-2.558
					c0.377-0.464,1.579-1.946,2.054-2.311c0.431-0.332,0.981-0.495,1.365-0.873C387.297,368.99,387.687,368.208,387.712,367.567z"/>
				<path style="fill:#37474F;" d="M370.906,396.395c1.391-1.134,2.867-2.229,4.349-3.207l0-0.007c0,0-9.37,5.62-13.137,3.013
					c-2.427-1.679-1.262-3.691-1.201-4.337c0.061-0.645-8.513-5.262-10.876-5.559l0,0c-0.66,0.359-1.206,0.668-1.56,0.807
					c-6.217,2.439-7.055,5.635-6.038,9.667c1.374,2.496,6.748,5.102,13.677,5.15C360.651,401.953,367.63,399.067,370.906,396.395z"
					/>
				<path style="fill:#37474F;" d="M361.577,389.979c-4.95,1.943-2.845,2.881-1.462,3.088c1.384,0.207,9.722-4.595,14.811-8.576
					c5.309-4.152,9.454-9.746,11.426-11.271c0.735-0.568,1.527-1.268,2.231-1.921c-0.126-1.09-0.227-2.081-0.326-2.602
					c-0.176-0.931-0.545-1.131-0.545-1.131s-0.415,1.423-0.9,1.901c-0.383,0.378-0.933,0.541-1.365,0.873
					c-0.475,0.365-1.677,1.848-2.054,2.311c-0.704,0.866-1.317,1.818-2.153,2.558C376.903,380.659,366.527,388.037,361.577,389.979z
					"/>
				<g>
					<g>
						<path style="fill:#263238;" d="M360.469,392.343c0.109,0.001,0.219-0.034,0.31-0.109c0.21-0.169,0.243-0.477,0.072-0.688
							c-1.389-1.719-7.985-5.82-11.624-5.446c-0.27,0.026-0.465,0.267-0.436,0.536c0.027,0.268,0.241,0.457,0.537,0.438
							c3.397-0.341,9.663,3.725,10.763,5.087C360.187,392.28,360.327,392.342,360.469,392.343z"/>
					</g>
					<g>
						<path style="fill:#263238;" d="M364.791,389.719c0.109,0.001,0.219-0.035,0.31-0.108c0.21-0.17,0.241-0.477,0.071-0.688
							c-1.388-1.718-7.982-5.816-11.623-5.445c-0.269,0.027-0.465,0.268-0.436,0.536c0.027,0.268,0.261,0.464,0.536,0.438
							c3.399-0.337,9.663,3.723,10.763,5.085C364.508,389.656,364.649,389.718,364.791,389.719z"/>
					</g>
					<g>
						<path style="fill:#263238;" d="M369.113,387.235c0.109,0.001,0.219-0.034,0.31-0.109c0.21-0.169,0.241-0.477,0.071-0.688
							c-1.389-1.719-7.985-5.823-11.623-5.445c-0.269,0.027-0.465,0.268-0.436,0.536c0.027,0.268,0.257,0.464,0.537,0.438
							c3.399-0.341,9.663,3.723,10.763,5.085C368.831,387.172,368.971,387.234,369.113,387.235z"/>
					</g>
					<g>
						<path style="fill:#263238;" d="M373.12,384.391c0.109,0.001,0.219-0.034,0.31-0.108c0.21-0.169,0.241-0.477,0.072-0.688
							c-1.388-1.719-7.999-5.819-11.623-5.445c-0.27,0.027-0.465,0.268-0.436,0.535c0.028,0.268,0.259,0.463,0.537,0.438
							c3.394-0.339,9.663,3.723,10.763,5.085C372.837,384.328,372.978,384.391,373.12,384.391z"/>
					</g>
					<g>
						<path style="fill:#263238;" d="M377.046,381.547c0.106,0.001,0.214-0.033,0.304-0.104c0.213-0.166,0.249-0.474,0.082-0.686
							c-1.908-2.436-8.82-5.872-12.456-5.5c-0.269,0.027-0.465,0.268-0.436,0.535c0.027,0.269,0.26,0.457,0.537,0.438
							c3.275-0.333,9.893,2.969,11.587,5.129C376.759,381.483,376.902,381.546,377.046,381.547z"/>
					</g>
				</g>
			</g>
			<g>
				<path style="fill:#FFBDA7;" d="M423.52,374.748l-3.771-20.855l20.198-2.351l-0.486,20.414c0,0,1.315,5.55,0.11,7.39
					c-1.205,1.84-13.343,3.326-14.398,2.024C424.117,380.068,423.52,374.748,423.52,374.748z"/>
				<path style="fill:#263238;" d="M424.233,407.398c0.344,4.657,1.182,7.694,3.058,10.287c1.876,2.593,5.377,3.166,8.909,2.07
					c3.531-1.097,8.044-3.62,9.023-7.743c0.979-4.123,0.75-6.874-0.091-11.15L424.233,407.398z"/>
				<path id="XMLID_00000070114582640332931780000001206266715698512780_" style="fill:#455A64;" d="M439.461,371.957
					c1.459-0.018,0.92,3.614,1.359,9.893c0.474,6.792,3.266,12.215,4.119,17.681c0.975,6.244,0.629,9.098-1.807,13.124
					c-2.435,4.026-11.142,8.496-15.496,3.379c-3.55-4.172-3.738-9.108-3.472-15.445c0.275-6.551,0.525-11.164,0.185-16.091
					c-0.325-4.709-2.09-9.119-0.828-9.75c0.104,0.687,1.152,5.486,1.969,5.443c0.07-0.611,0.051-1.173,0.001-1.784
					c-0.044-0.532,0.001-1.12,0.386-1.559c0.388-0.444,1.798-0.958,2.388-1.112c1.432-0.373,3.983-0.806,5.439-1.045
					c0.725-0.119,1.453-0.21,2.183-0.263c0.591-0.043,1.288-0.056,1.849,0.084c0.345,0.086,0.665,0.279,0.795,0.577
					c0.096,0.22,0.08,0.472,0.083,0.715c0.003,0.437,0.069,0.869,0.194,1.282c0.055,0.182,0.201,0.398,0.409,0.336
					c0.169-0.051,0.234-0.245,0.234-0.402C439.449,376.257,439.494,372.358,439.461,371.957z"/>
				<path style="fill:#37474F;" d="M444.592,397.76c0.149,0.9,1.063,6.865-0.761,8.104c-1.973,1.342-3.103-3.314-3.103-3.314
					s-4.664-0.894-11.411,2.324c0.356,0.95-0.661,4.266-2.524,3.738c-1.851-0.525-2.64-7.388-2.65-7.478
					c-0.229,6.074,0.047,10.849,3.493,14.899c4.354,5.117,13.061,0.647,15.496-3.379c2.436-4.026,2.781-6.88,1.806-13.124
					C444.841,398.905,444.723,398.321,444.592,397.76z"/>
				<path style="fill:#37474F;" d="M440.201,403c0.049,2.282,2.557,1.303,2.639-1.932c0.081-3.235-1.277-11.155-1.7-16.468
					c-0.12-7.623-0.22-12.661-1.679-12.643c0.007,0.077,0.005,0.155,0.01,0.232c0,0-0.021,4.34-0.02,4.832
					c0.077,4.657-0.222,13.687,0.263,17.911C440.197,399.155,440.152,400.717,440.201,403z"/>
				<path style="fill:#37474F;" d="M430.102,404.747c-0.498-2.205-0.914-3.688-1.458-7.901c-0.54-4.182-2.658-12.598-3.694-17.119
					c-0.363-0.75-1.43-4.979-1.43-4.979c-1.019,0.247-0.17,4.273,0.228,6.157c0.397,1.884,0.894,3.905,1.377,6.604
					c1.297,5.333,1.128,13.251,1.978,16.325C427.954,406.908,430.599,406.951,430.102,404.747z"/>
				<g>
					<g>
						<path style="fill:#263238;" d="M429.175,405.072c0.067-0.011,0.133-0.035,0.197-0.068c0.052-0.03,5.323-2.894,11.221-1.973
							c0.29,0.044,0.584-0.135,0.658-0.399c0.075-0.265-0.1-0.515-0.389-0.561c-6.311-0.986-11.768,1.987-12,2.115
							c-0.263,0.145-0.363,0.447-0.221,0.673C428.747,405.029,428.964,405.108,429.175,405.072z"/>
					</g>
					<g>
						<path style="fill:#263238;" d="M427.915,400.213c0.061-0.01,0.121-0.03,0.179-0.059c0.058-0.029,5.986-3.024,12.564-2.203
							c0.291,0.032,0.579-0.151,0.645-0.418c0.065-0.266-0.12-0.512-0.411-0.548c-6.957-0.863-13.018,2.203-13.274,2.332
							c-0.268,0.139-0.38,0.437-0.249,0.668C427.473,400.166,427.695,400.251,427.915,400.213z"/>
					</g>
					<g>
						<path style="fill:#263238;" d="M440.264,393.269c0.204-0.035,0.387-0.173,0.456-0.364c0.092-0.263-0.061-0.526-0.344-0.589
							c-6.553-1.445-12.985,2.069-13.257,2.22c-0.264,0.146-0.363,0.446-0.222,0.673c0.142,0.225,0.473,0.284,0.731,0.144
							c0.061-0.033,6.31-3.441,12.407-2.088C440.111,393.282,440.189,393.282,440.264,393.269z"/>
					</g>
					<g>
						<path style="fill:#263238;" d="M439.851,388.859c0.201-0.035,0.38-0.169,0.452-0.356c0.099-0.262-0.049-0.527-0.331-0.594
							c-7.209-1.716-13.27,2.045-13.524,2.205c-0.254,0.16-0.333,0.465-0.175,0.681c0.157,0.216,0.497,0.262,0.744,0.101
							c0.056-0.036,5.888-3.64,12.597-2.045C439.693,388.871,439.773,388.872,439.851,388.859z"/>
					</g>
					<g>
						<path style="fill:#263238;" d="M439.364,383.905c0.197-0.034,0.376-0.165,0.449-0.349c0.102-0.26-0.041-0.527-0.321-0.598
							c-6.756-1.706-13.343,2.18-13.619,2.348c-0.259,0.154-0.344,0.458-0.193,0.678c0.15,0.22,0.48,0.277,0.74,0.117
							c0.064-0.038,6.427-3.789,12.7-2.205C439.201,383.917,439.284,383.919,439.364,383.905z"/>
					</g>
				</g>
			</g>
			<g>
				<path id="XMLID_00000054257880853389798430000014136601695239243143_" style="fill:#455A64;" d="M433.912,203.592
					c2.135,19.713,3.515,30.663,3.027,56.481c-0.185,9.788,0.163,20.659,0.261,30.449c0.028,2.776-0.301,6.054,0.159,8.801
					c0.85,5.082,1.364,8.245,2.236,14.473c0.528,3.772,0.786,8.561,1.05,12.362c0.395,5.701-0.165,11.495,1.029,17.088
					c0.449,2.1,1.143,4.159,1.337,6.297c0.105,1.15,0.054,2.341-0.258,3.457c-0.316,1.129-2.35,3.822-2.704,4.842
					c-0.516,1.487-0.041,3.722-0.036,5.322c0,0-10.566,5.26-18.625,2.396c-0.377-1.42-0.492-3.771-1.294-4.942
					c-0.572-0.836-3.145-2.846-3.859-3.675c-0.753-0.875-1.312-1.914-1.599-3.026c-0.401-1.553-0.292-3.183-0.435-4.78
					c-0.338-3.765-2.06-7.251-3.277-10.837c-3.28-9.664-2.707-19.931-4.735-29.819c-2.739-13.351-4.049-21.796-5.599-31.305
					c-1.549-9.509-5.484,18.944-5.484,18.948c-0.225,1.617,0.182,3.553,0.247,5.18c0.135,3.378,0.053,6.697,0.49,10.031
					c0.971,7.4,0.768,14.947-0.607,22.279c-0.723,3.857-1.353,6.511-1.145,10.44c0.123,2.305,0.526,4.345-0.371,6.475
					c-0.645,1.532-2.312,4.072-3.122,5.493c-0.333,0.585-0.345,5.21-0.707,5.432c0,0-11.166,6.433-19.574-0.501
					c-0.115-1.346-0.868-4.014-1.426-5.204c-1.452-1.53-2.805-4.437-2.972-6.749c-0.156-2.173,0.506-3.759,0.516-5.937
					c0.013-2.672-0.441-5.323-0.732-7.98c-0.416-3.79-0.503-7.606-0.439-11.414c0.055-3.311,0.607-6.822,0.096-10.068
					c-0.851-5.404-0.964-11.122-1.132-16.597c-0.661-21.536,2.216-65.238,3.5-93.033L433.912,203.592z"/>
				<path style="fill:#263238;" d="M395.547,242.693l5.684,38.429c-0.212-1.306-0.424-2.615-0.641-3.946
					c-1.549-9.509-5.484,18.948-5.484,18.948l0.701-17.614c0.262-5.812-0.687-11.339-1.496-17.703
					c-1.049-8.254-2.028-14.086-2.028-14.086c-11.038-2.463-14.488-9.4-14.488-9.4C382.831,242.192,395.547,242.693,395.547,242.693
					z"/>
			</g>
			<path style="fill:#263238;" d="M440.252,363.833c-3.572,2.925-11.722,5.087-18.963,2.535l-1.541-6.157
				c5.464,1.79,14.31,0.892,20.284-2.964L440.252,363.833z"/>
			<path style="fill:#263238;" d="M389.895,362.172c-2.424,2.522-13.831,3.708-20.531-0.236l-0.472-6.186
				c5.078,2.842,16.765,3.234,21.707,0.273L389.895,362.172z"/>
			<g>
				<path style="fill:#37474F;" d="M436.815,264.438c0,0,0.623,28.042,0.558,30.059c-0.065,2.016-15.987,6.28-16.379,5
					c-0.653-2.131-0.521-6.89-1.938-29.819C431.332,268.012,436.815,264.438,436.815,264.438z"/>
				<path style="fill:#263238;" d="M421.414,277.559c0.446-0.154,0.933-0.11,1.398-0.124c0.544-0.016,1.087-0.043,1.628-0.091
					c1.147-0.102,2.287-0.285,3.409-0.546c1.269-0.295,2.52-0.691,3.735-1.17c0.991-0.391,1.928-0.917,2.919-1.299
					c0.093-0.036,0.11,0.147,0.05,0.192c-0.937,0.703-2.052,1.188-3.121,1.63c-1.006,0.417-2.036,0.755-3.087,1.026
					c-1.118,0.288-2.255,0.498-3.4,0.629c-0.573,0.065-1.147,0.11-1.723,0.134c-0.544,0.023-1.321,0.153-1.814-0.124
					C421.332,277.773,421.322,277.591,421.414,277.559z"/>
				<path style="fill:#263238;" d="M427.679,274.379c0.004,0.243,0.062,0.484,0.262,0.631c0.303,0.224,0.747,0.194,1.06,0.013
					c0.362-0.209,0.579-0.61,0.524-1.043c-0.032-0.253-0.169-0.477-0.372-0.626c-0.215-0.157-0.488-0.222-0.747-0.19
					c-0.319,0.039-0.427,0.217-0.568,0.502C427.731,273.883,427.675,274.136,427.679,274.379z M428.289,273.746
					c0.116-0.092,0.268-0.126,0.414-0.112c0.463,0.047,0.546,0.792,0.169,1.015c-0.227,0.135-0.582,0.086-0.747-0.138
					C427.957,274.284,428.093,273.903,428.289,273.746z"/>
			</g>
		</g>
		<g id="Top_00000101814385241201091530000002810046225415076770_">
			<g id="XMLID_1352_">
				<path id="XMLID_00000118390837636634421300000004115580646676640410_" style="fill:#F0F0F0;" d="M431.355,141.271
					c0,0,9.486,7.136,8.442,22.664c-0.798,11.877-3.827,24.961-4.125,30.047c-0.457,7.8,0.227,26.458,0.227,26.458
					c-11.642,14.193-62.968,10.927-69.201-1.824c0,0,1.29-40.303,3.884-59.811c1.359-10.221,7.033-18.349,10.799-21.223
					c0,0,4.003-0.888,12.75-1.498c5.363-0.374,20.68,0.6,20.68,0.6L431.355,141.271z"/>
			</g>
			<g>
				<g id="Head_10_">
					<g>
						<g id="XMLID_00000132053885254821519790000014362282592103439038_">
							<g id="XMLID_00000087405943335192259860000008673747533227670921_">
								<path style="fill:#37474F;" d="M421.529,92.857c0,0,3.886,0.211,5.702,3.174c1.815,2.963,2.907,8.36,0.57,14.386
									c-2.572,6.631-7.558,13.016-8.649,14.876c-1.091,1.861-3.171,2.299-3.171,2.299l0.593-8.175l0.57-5.689
									c0,0-4.405-4.388-4.611-8.505c-0.264-5.298,1.933-8.19,1.933-8.19L421.529,92.857z"/>
								<path style="fill:#37474F;" d="M393.101,101.124c2.257-0.954,5.094-1.207,7.505-1.247c2.294-0.038,4.588-0.086,6.882-0.129
									c2.456-0.046,4.913-0.092,7.369-0.138c0,0,7.895-0.942,8.154-6.489c0.127-2.73-1.127-4.617-1.395-5.023
									c-0.95-1.438-2.488-3.085-3.887-4.08c-3.328-2.368-6.388-3.644-10.547-4.132c-2.998-0.352-6.034-0.068-9.021,0.368
									c-2.02,0.295-4.089,0.659-6.087,0.236c-1.432-0.303-2.933-1.231-3.113-2.683c-1.64,1.81-2.046,4.635-0.981,6.833
									c-1.964-0.179-3.89,1.253-4.491,3.131c-0.672,2.101,0.235,3.854,1.418,5.513c-0.146-0.205-1.007,1.327-1.075,1.456
									c-0.474,0.896-0.668,1.932-0.523,2.951c0.206,1.445,1.442,2.523,2.723,3.221
									C388.291,102.142,390.765,102.112,393.101,101.124z"/>
								<path style="fill:#FFBDA7;" d="M423.944,122.162c-4.339,1.865-6.117-1.58-6.117-1.58l-1.421,16.85
									c-8.649,10.519-30.195,5.571-20.904-2.177l0.196-3.85c0,0-1.423-0.064-3.656-0.53c-3.727-0.767-7.011-4.266-7.941-8.385
									c-1.371-6.093-0.507-15.346,2.236-25.482c0.529-1.957,1.483-4.076,3.341-4.889c4.611-2.018,8.629,1.388,14.794,4.127
									c2.553,1.135,8.838,1.873,10.538,1.171c-2.304,2.316-2.64,9.956,0.444,13.208c0.515,1.101,1.079,1.758,1.519,2.181
									c1.318,1.259,2.586-1.772,3.796-2.926c1.221-1.144,5.599-2.021,7.279,2.035
									C429.744,116.045,427.963,120.434,423.944,122.162z"/>
								<path style="fill:#F0997A;" d="M395.698,131.405c4.928,0.2,9.329-0.205,12.293-1.295c2.965-1.09,5.725-4.904,6.751-8.766
									c-0.146,3.14-1.782,8.644-6.297,10.752c-4.515,2.108-9.653,1.993-12.88,1.913L395.698,131.405z"/>
							</g>
							<g id="XMLID_00000070801411784526524540000015981197808822910134_">
								<path id="XMLID_00000121971027520775627480000010786235670667904142_" style="fill:#37474F;" d="M402.872,102.25
									l4.083,1.947c0.516-1.17,0.019-2.555-1.108-3.093C404.719,100.567,403.387,101.08,402.872,102.25z"/>
								<path id="XMLID_00000104688387705052059660000011929903492449691776_" style="fill:#37474F;" d="M387.91,101.298
									l4.541-0.391c-0.061-1.269-1.128-2.209-2.382-2.101C388.815,98.914,387.848,100.03,387.91,101.298z"/>
								<path style="fill:#263238;" d="M405.494,107.799c-0.084,1.015-0.974,1.769-1.988,1.686
									c-1.014-0.084-1.769-0.974-1.685-1.988c0.084-1.014,0.974-1.769,1.989-1.686
									C404.824,105.895,405.578,106.785,405.494,107.799z"/>
								<path style="fill:#263238;" d="M392.111,105.478c-0.084,1.015-0.974,1.769-1.988,1.686
									c-1.014-0.084-1.769-0.974-1.685-1.988c0.084-1.014,0.974-1.769,1.989-1.686
									C391.44,103.574,392.194,104.464,392.111,105.478z"/>
								<path id="XMLID_00000066501766877180595940000010902434356373503388_" style="fill:#F0997A;" d="M398.423,102.952
									l-2.064,11.649l-6.085-2.574C392.67,107.997,395.386,104.972,398.423,102.952z"/>
							</g>
						</g>
					</g>
					<path id="XMLID_1316_" style="fill:#B16668;" d="M402.173,117.368l-7.534,2.108c0.541,2.154,2.666,3.428,4.748,2.846
						C401.468,121.739,402.715,119.521,402.173,117.368z"/>
					<path style="fill:#F0997A;" d="M401.328,118.669c0.322-0.055,0.637-0.062,0.947-0.046c-0.098,1.7-1.214,3.23-2.887,3.698
						c-0.42,0.117-0.838,0.141-1.248,0.115C397.914,120.686,399.309,119.014,401.328,118.669z"/>
				</g>
			</g>
			<g id="Like_icon_00000094613737803840299690000005076733771464139160_">
				<g id="XMLID_00000180366003241467450930000012841427135913807291_">
					<g>
						<path style="fill:#455A64;" d="M284.244,139.771c1.677-0.888,4.12-0.734,7.013,0.942c5.566,3.211,42.615,24.557,42.615,24.557
							l13.478-7.78c0,0-37.059-21.357-42.626-24.557c-2.981-1.731-5.49-1.841-7.167-0.855
							C296.133,132.912,286.37,138.511,284.244,139.771z"/>
					</g>
					<g>
						<path style="fill:#37474F;" d="M320.657,243.564c0.022,1.961,0.099,4.087,0.186,6.081c0.066,1.622,0.142,3.134,0.197,4.361
							c0.066,1.249,0.109,2.225,0.109,2.729c0,0.208-0.066,0.362-0.197,0.482c0.921-0.537,13.215-7.616,13.412-7.747
							c0.165-0.11,0.252-0.285,0.252-0.515c0-0.504-0.044-1.479-0.109-2.729c-0.055-1.238-0.132-2.75-0.197-4.372
							c-0.088-1.983-0.165-4.109-0.186-6.071c-0.044-3.145,0.066-5.83,0.493-6.783c0.132-0.318,0.417-0.8,0.811-1.403
							c0.548-0.756,1.282-1.731,2.126-2.794c0-0.011,0-0.011,0-0.011c3.802-4.811,9.796-11.604,9.796-11.604v-0.055l-13.478,7.78
							v0.066c0,0-5.983,6.783-9.785,11.593c0,0,0,0,0,0.011c-0.844,1.074-1.578,2.038-2.126,2.794
							c-0.395,0.603-0.68,1.085-0.811,1.403C320.723,237.734,320.613,240.419,320.657,243.564z"/>
					</g>
					<g>
						<polygon style="fill:#455A64;" points="334.372,165.559 346.85,158.356 346.85,212.845 334.372,220.048 						"/>
						<path style="fill:#455A64;" d="M346.35,159.222v53.334l-11.478,6.625v-53.334L346.35,159.222 M347.35,157.49l-13.478,7.78
							v55.644l13.478-7.78V157.49L347.35,157.49z"/>
					</g>
					<g id="XMLID_00000053514842228968857340000002794558895102954138_">
						<g id="XMLID_00000123408119502662687530000009569001110324455603_">
							<polygon style="fill:#263238;" points="333.874,220.915 347.345,213.13 347.345,157.485 333.874,165.27 							"/>
						</g>
					</g>
					<g>
						<path style="fill:#FFFFFF;" d="M320.328,256.845c-0.087,0-0.182-0.008-0.283-0.024c-2.149-0.322-6.771-3.477-9.868-8.565
							c-1.071-1.767-1.874-3.573-2.454-5.522c-1.293-4.329-2.125-8.171-2.546-11.746c-0.643-5.248-0.371-9.906,0.854-14.66
							l0.102-0.396l-26.115-15.059c-1.854-1.057-3.515-2.758-4.804-4.922c-1.796-2.976-2.599-6.341-2.599-8.357
							c-0.032-5.003,2.803-5.69,3.673-5.782l1.235-0.13l-0.941-0.811c-0.05-0.043-4.964-4.356-4.964-10.909
							c0-2.58,1.202-5.183,3.888-5.183c0.526,0,1.093,0.1,1.685,0.297l1.258,0.419l-0.611-1.177
							c-0.017-0.032-1.639-3.209-1.639-7.817c0-2.135,1.926-4.617,4.408-4.617c0.684,0,1.363,0.191,2.018,0.569l1.188,0.684
							l-0.406-1.309c-0.011-0.034-1.071-3.495-1.071-7.242c-0.014-1.994,0.714-3.512,2.05-4.28c0.616-0.354,1.342-0.533,2.157-0.533
							c1.32,0,2.857,0.485,4.443,1.404l42.353,24.4v55.194c-0.91,1.036-6.223,7.101-9.676,11.473l-0.115,0.146v0.01
							c-0.746,0.945-1.461,1.886-2.024,2.667c-0.45,0.68-0.732,1.167-0.872,1.507c-0.409,0.913-0.586,3.206-0.533,6.996
							c0.02,1.695,0.08,3.688,0.186,6.094c0.042,1.036,0.089,2.03,0.132,2.936l0.065,1.434c0.051,0.969,0.109,2.148,0.109,2.7
							C320.59,256.807,320.509,256.845,320.328,256.845z"/>
						<path style="fill:#37474F;" d="M286.541,140.312L286.541,140.312c1.226,0,2.67,0.46,4.176,1.333
							c5.17,2.978,37.506,21.607,42.082,24.244v54.681c-1.211,1.381-6.24,7.141-9.559,11.342l-0.231,0.303
							c-0.708,0.9-1.385,1.794-1.948,2.575c-0.465,0.703-0.753,1.205-0.895,1.551c-0.286,0.639-0.659,2.084-0.587,7.235
							c0.019,1.686,0.08,3.686,0.187,6.109c0.042,1.04,0.089,2.036,0.132,2.943l0.066,1.44c0.039,0.739,0.082,1.605,0.1,2.211
							c-1.742-0.306-6.203-3.004-9.427-8.302c-1.048-1.729-1.833-3.494-2.399-5.398c-1.284-4.297-2.111-8.109-2.527-11.66
							c-0.635-5.175-0.368-9.769,0.84-14.458l0.204-0.791l-0.707-0.408l-25.766-14.858c-1.771-1.009-3.364-2.645-4.609-4.734
							c-1.74-2.885-2.519-6.135-2.519-8.084c-0.03-4.548,2.435-5.161,3.191-5.24l2.462-0.26l-1.873-1.622
							c-0.048-0.041-4.777-4.21-4.777-10.503c0-2.143,0.877-4.645,3.35-4.645c0.468,0,0.977,0.091,1.514,0.27l2.523,0.841
							l-1.231-2.358c-0.016-0.03-1.577-3.073-1.577-7.568c0-1.887,1.691-4.08,3.871-4.08c0.588,0,1.177,0.167,1.751,0.498
							l2.377,1.369l-0.815-2.619c-0.011-0.034-1.047-3.409-1.047-7.09c-0.013-1.788,0.619-3.14,1.78-3.806
							C285.185,140.467,285.821,140.312,286.541,140.312 M286.54,139.237c-0.926,0-1.742,0.213-2.424,0.605
							c-1.483,0.852-2.335,2.55-2.319,4.745c0,3.879,1.096,7.402,1.096,7.402c-0.774-0.446-1.548-0.641-2.287-0.641
							c-2.712,0-4.945,2.631-4.945,5.155c0,4.81,1.698,8.065,1.698,8.065c-0.664-0.221-1.283-0.325-1.854-0.325
							c-2.799,0-4.425,2.489-4.425,5.72c0,6.892,5.15,11.316,5.15,11.316c-1.392,0.146-4.186,1.27-4.153,6.316
							c0,2.126,0.822,5.562,2.674,8.632c1.194,2.004,2.86,3.894,4.997,5.112l25.762,14.855c-1.183,4.594-1.545,9.316-0.866,14.856
							c0.416,3.549,1.249,7.436,2.564,11.837c0.625,2.102,1.49,3.967,2.509,5.648c3.298,5.419,8.054,8.489,10.246,8.817
							c0.131,0.02,0.253,0.03,0.365,0.03c0.515,0,0.819-0.215,0.819-0.647c0-0.504-0.044-1.475-0.11-2.723
							c-0.055-1.236-0.132-2.749-0.197-4.37c-0.088-1.986-0.164-4.113-0.186-6.077c-0.044-3.141,0.066-5.83,0.493-6.783
							c0.132-0.319,0.416-0.801,0.811-1.398c0.548-0.759,1.282-1.73,2.126-2.794c0-0.011,0-0.011,0-0.011
							c3.802-4.814,9.791-11.604,9.791-11.604v-55.707c0,0-37.054-21.348-42.62-24.554
							C289.492,139.693,287.898,139.237,286.54,139.237L286.54,139.237z"/>
					</g>
				</g>
				<g>
					<path id="XMLID_00000036252805490338913110000007351228614034920083_" style="fill:#37474F;" d="M340.003,170.044
						c0-0.796,0.284-1.648,0.72-2.425c0.455-0.758,1.061-1.44,1.743-1.837l8.563-4.945c1.364-0.777,3.543-0.777,4.907,0h0.019
						l13.66,7.9c0.682,0.398,1.307,1.08,1.743,1.837c0.436,0.777,0.72,1.648,0.72,2.425v59.091c0,1.572-1.099,3.486-2.463,4.263
						l-8.563,4.945c-0.682,0.398-1.573,0.587-2.463,0.587c-0.89,0-1.762-0.189-2.444-0.568c0-0.019-0.019-0.019-0.019-0.019
						l-13.698-7.919c-1.364-0.777-2.463-2.671-2.463-4.244v-0.019L340.003,170.044z"/>
					<g id="XMLID_00000149359346829932224200000001419237490687831168_">
						<path style="fill:#263238;" d="M358.588,177.944v63.941c0.891,0,1.781-0.189,2.463-0.587l8.563-4.945
							c1.364-0.777,2.463-2.69,2.463-4.263v-59.091c0-0.777-0.284-1.648-0.72-2.425L358.588,177.944z"/>
					</g>
					<g id="XMLID_00000146499296676170715760000011887849548816439231_">
						<path style="fill:#455A64;" d="M340.723,167.618l17.866,10.325l12.769-7.37c-0.436-0.758-1.061-1.44-1.743-1.838l-13.66-7.9
							h-0.019c-1.364-0.777-3.543-0.777-4.907,0l-8.563,4.945C341.784,166.178,341.177,166.861,340.723,167.618z"/>
					</g>
				</g>
			</g>
			<g id="Arm_00000105427201962971217570000010925792373103770276_">
				<path style="fill:#FFBDA7;" d="M432.004,142.017c8.925,2.101,12.145,10.02,8.92,19.96c-2.826,8.712-18.553,30.285-20.607,33.922
					c-2.054,3.637-3.969,5.044-10.007,8.553c-6.038,3.509-22.354,10.853-27.083,13.105c-4.729,2.252-7.504,5.551-11.907,8.344
					c-4.403,2.793-10.907,3.509-14.236,3.402c-1.478-0.048-3.056-1.027-4.539-2.397c-2.359-0.286-2.794-1.169-2.747-1.983
					c-2.053-0.012-2.983-0.429-2.423-1.923c1.167-3.116,6.67-3.408,11.479-5.174c4.59-1.685,8.033-4.236,6.745-4.703
					c-2.593-0.94-6.361,1.16-10.31-0.427c-2.316-0.931-2.197-2.874-1.174-2.983c1.91-0.204,5.466-1.945,10.08-2.769
					c4.206-0.751,9.738,0.198,12.656-1.474c6.831-3.916,27.002-18.041,27.002-18.041l17.519-29.409
					C421.371,158.018,423.992,146.305,432.004,142.017z"/>
				<path style="fill:#37474F;" d="M396.813,192.307l6.716-5.194l16.867-29.127c0,0,3.874-13.831,10.959-16.716
					c6.986,1.724,9.907,5.297,11.262,8.344c0.848,1.906,3.095,10.723-1.55,19.272c-5.423,9.98-14.515,22.379-17.96,26.885
					c-2.569,3.36-4.765,4.419-9.193,6.894c-4.428,2.475-7.736,4.001-7.736,4.001C400.962,203.238,397.503,198.67,396.813,192.307z"
					/>
			</g>
		</g>
	</g>
</g>
<g id="Speech_Bubble_2">
	<g id="Speech_Bubble_00000073695341673304831320000000016088420048398481_">
		<g id="Speech_Bubble_00000053534838217661215320000017751200840053290420_">
			<path style="fill:#FFFFFF;" d="M355.614,59.542c4.249,5.113,6.119,11.422,5.757,17.589l-0.335,2.865
				c-0.992,5.686-3.92,11.067-8.7,15.039c-10.687,8.882-26.608,7.414-35.49-3.273c-3.972-4.779-5.868-10.605-5.802-16.377
				l0.195-2.878c0.773-6.129,3.765-11.99,8.877-16.239C330.808,47.383,346.729,48.851,355.614,59.542z"/>
			<path style="fill:#455A64;" d="M318.718,54.656c-11.577,9.656-13.14,26.934-3.483,38.511
				c8.664,10.387,23.457,12.703,34.768,6.097l7.429,4.116c1.269,0.703,2.738-0.523,2.275-1.897l-2.716-8.048
				c8.526-9.943,8.902-24.909,0.238-35.296C347.572,46.562,330.295,44.999,318.718,54.656z M355.589,59.507
				c4.258,5.105,6.138,11.411,5.788,17.578l-0.33,2.866c-0.982,5.687-3.901,11.074-8.673,15.054
				c-10.671,8.901-26.595,7.461-35.495-3.211c-3.98-4.772-5.886-10.595-5.831-16.366l0.19-2.878
				c0.762-6.13,3.743-11.997,8.848-16.255C330.761,47.392,346.685,48.832,355.589,59.507z"/>
		</g>
		<path style="fill:#BA68C8;" d="M344.462,62.946l-8.233,8.233l-8.233-8.233c-1.235-1.235-3.237-1.235-4.472,0
			c-1.235,1.235-1.235,3.237,0,4.472l8.233,8.233l-8.233,8.233c-1.235,1.235-1.235,3.237,0,4.472c1.235,1.235,3.237,1.235,4.472,0
			l8.233-8.233l8.233,8.233c1.235,1.235,3.237,1.235,4.472,0c1.235-1.235,1.235-3.237,0-4.472l-8.233-8.233l8.233-8.233
			c1.235-1.235,1.235-3.237,0-4.472C347.699,61.711,345.697,61.711,344.462,62.946z"/>
	</g>
</g>
<g id="Character_1">
	<g id="Character_8_">
		<g id="Bottom_00000178908641383907285180000017275413643767185280_">
			<g id="Bottom_00000174561005160601609090000008536740742534024577_">
				<g>
					<polygon style="fill:#263238;" points="118.925,391.832 122.753,390.203 119.132,388.964 					"/>
					<path style="fill:#263238;" d="M155.504,400.831c0,0-42.858-22.456-43.573-19.505c-0.158,0.65-0.17,1.245-0.078,1.794
						c-0.035-0.056-0.078-0.111-0.109-0.168l0.498,5.609c0,0,2.994,2.877,6.684,3.271c0.019-0.268,0.139-1.923,0.208-2.868
						c1.166,0.571,2.361,1.238,3.763,2.29c2.714,2.038,4.341,5.422,7.119,9.404c2.024,2.902,5.838,4.419,11.552,5.568
						c6.149,1.237,11.678,0.348,13.312-1.239C156.181,403.723,155.705,401.232,155.504,400.831z"/>
					<path style="fill:#B16668;" d="M154.365,399.491c-0.398-0.47-1.869-2.297-3.884-4.312c-1.763-1.762-3.808-3.977-6.04-5.799
						c-0.891-0.727-4.412-4.567-5.044-5.506c-1.964-2.918-4.115-5.798-5.397-9.067c-0.608-1.552-1.045-3.379-0.679-9.095
						c0.512-7.981,0.824-9.772,1.202-15.847l-22.215-1.482c0.421,3.402,1.361,8.174,1.836,12.779c0.6,5.82,2.479,6.478-0.106,12.157
						c-0.761,1.671-1.846,3.259-2.035,5.086c-0.307,2.97,1.872,5.674,4.391,7.277c2.087,1.329,4.538,1.988,6.557,3.392
						c2.123,1.478,3.717,3.616,5.17,5.721c1.373,1.988,2.434,4.307,4.435,5.763c2.218,1.615,4.387,2.202,7.025,2.897
						c3.033,0.8,6.966,1.091,9.598,1.033C153.766,404.388,157.261,402.91,154.365,399.491z"/>
					<g>
						<g>
							<path style="fill:#37474F;" d="M152.008,396.338c-1.804-1.712-4.361-4.16-7.458-6.926c-0.704-0.413-3.564-1.272-6.859,0.238
								c-6.731,3.086-8.121,7.919-8.121,7.919s1.217,3.389,5.069,4.996c7.363,3.745,20.933,3.456,21.263-0.035
								C156.113,400.308,154.199,398.416,152.008,396.338z M114.509,372.32c0,0-0.505,1.123-1.785,3.309
								c-1.28,2.185-1.623,4.417-0.315,6.748c1.73,3.084,4.014,4.132,6.363,4.897C121.243,380.759,117.051,373.903,114.509,372.32z"
								/>
						</g>
					</g>
				</g>
				<g>
					<path style="fill:#263238;" d="M76.742,377.672c1.113,2.011-1.037,11.859-1.154,16.961c-0.107,4.635-0.123,12.944-2.01,17.354
						c-2.236,5.226-6.407,11.14-12.822,5.433c-3.976-3.537-6.075-7.82-6.12-14.513c-0.031-4.651,2.458-10.842,4.61-16.339
						c2.514-6.42,3.553-9.882,3.553-9.882L76.742,377.672z"/>
					<path style="fill:#B16668;" d="M64.832,345.347c-1.349,10.709-1.365,16.835-1.839,23.73c-0.333,3.2-0.702,6.141-1.683,10.709
						c-0.945,4.4-2.819,10.299-3.74,13.081c-1.287,3.887-2.221,6.325-1.1,10.93c0.087,0.358,0.233,0.708,0.402,1.053
						c1.77,3.875,6.796,7.154,8.514,6.87c0.412,0.77,1.568,1.321,2.878,1.243c0.187-0.011,0.377-0.035,0.569-0.074
						c0.192-0.038,0.385-0.09,0.578-0.158c1.157-0.404,2.303-1.356,3.065-3.114c0.127-0.293,0.244-0.609,0.348-0.948
						c1.665-5.424,1.591-8.976,1.65-11.154c0.067-2.513,0.458-6.892,1.019-10.904c0.559-4.012,3.585-14.985,5.242-21.001
						c1.372-4.98,4.053-15.205,4.053-15.205L64.832,345.347z"/>
					<path style="fill:#37474F;" d="M56.132,397.95c4.276-1.304,16.602-0.19,18.08,5.427c-0.36,5.122-0.91,8.388-4.74,12.51
						c-5.09,5.477-10.611-1.371-12.601-5.574S55.347,400.653,56.132,397.95z"/>
				</g>
				<path style="fill:#455A64;" d="M80.074,203.85c-4.308,10.534-8.388,22.128-9.061,44.434c-0.888,29.41-2.262,40.038-2.551,43.576
					c-0.494,6.04-3.092,11.514-5.897,28.856c-2.805,17.342-1.322,49.178-1.322,49.178s4.104,4.023,10.741,5.001
					c6.122,0.903,8.814-1.498,8.814-1.498s11.645-46.934,14.578-57.309c2.933-10.375,11.685-44.538,11.685-44.538l3.462,28.717
					c0,0-3.462,9.054-2.457,24.46c1.004,15.405,6.452,44.25,6.452,44.25s3.265,2.49,9.877,2.165
					c6.642-0.327,9.262-2.615,9.262-2.615s5.93-57.189,6.919-74.529c0.989-17.34,3.419-62.98-2.916-90.148H80.074z"/>
				<path style="fill:#37474F;" d="M114.456,238.519l-7.396,33.031l3.462,28.717l-1.126-28.96l6.469-27.081
					c4.238-0.764,14.038-5.235,17.061-12.247C126.098,238.352,114.456,238.519,114.456,238.519z M96.026,217.912
					c0.898-2.76,1.836-5.502,2.872-8.255c-1.716,2.398-3.053,5.048-4.218,7.747c-1.174,2.701-2.131,5.485-2.989,8.294
					c-0.825,2.819-1.539,5.668-2.081,8.553c-0.551,2.88-0.977,5.796-1.08,8.741c0.863-2.813,1.675-5.607,2.485-8.404
					c0.823-2.791,1.604-5.588,2.45-8.363C94.276,223.439,95.144,220.675,96.026,217.912z M91.946,215.571
					c1.041-1.657,2.088-3.317,3.059-5.072c-1.557,1.263-2.941,2.701-4.221,4.224c-1.29,1.516-2.443,3.144-3.511,4.826
					c-1.039,1.7-1.993,3.458-2.757,5.307c-0.771,1.84-1.393,3.761-1.676,5.748l2.967-5.1c1.003-1.669,1.996-3.336,3.036-4.978
					C89.855,218.865,90.915,217.233,91.946,215.571z M82.115,326.713c-2.14,8.938-4.163,17.904-6.07,26.895
					c2.606-8.82,5.097-17.664,7.47-26.536c2.401-8.875,4.689-17.739,6.968-26.676c2.166-8.966,3.802-18.033,5.208-27.118
					c1.426-9.084,2.608-18.199,3.684-27.329c-1.783,9.019-3.439,18.058-5.102,27.086c-1.695,9.021-3.403,18.035-5.587,26.923
					C86.455,308.831,84.227,317.777,82.115,326.713z M134.367,284.273c0.004,3.987,0.06,8-0.182,11.932
					c-0.259,3.949-0.681,7.942-1.061,11.916l-1.141,11.944c-0.767,7.964-1.446,15.94-2.028,23.929
					c1.296-7.905,2.456-15.827,3.464-23.769c1.013-7.949,1.981-15.87,2.613-23.908c0.338-8.09,0.01-16.067-0.347-24.079
					c-0.381-8.001-0.984-15.993-1.861-23.955l0.423,24.001C134.288,276.283,134.365,280.279,134.367,284.273z"/>
			</g>
		</g>
		<g id="Top_00000155846845725578653800000014405830971301110933_">
			<g>
				<path style="fill:#9A4A4D;" d="M217.444,140.13c1.238-0.158,1.371,1.024,0.546,1.829c-1.96,1.911-5.289,1.512-6.942,2.241
					c-0.39,0.223-5.141,3.885-5.368,5.107c1.294-0.448,5.258-2.187,6.574-2.565c0.381-0.109,1.449-0.221,4.724-0.538
					c0.504-0.049,1.291-0.171,1.702-0.008c0.376,0.149,0.709,1.005-0.069,1.755c-1.393,1.343-3.706,1.09-5.556,1.657
					c-0.904,0.25-3.719,1.208-4.677,2.889c2.719-0.541,4.425-0.297,8.472,0.421c0.475,0.084,0.537,0.34,0.488,0.65
					c-0.071,0.446-0.469,0.924-1.007,1.152c-1.192,0.505-2.797,0.126-4.615,0.213c-1.818,0.087-3.7,0.912-5.256,1.857
					c-0.592,0.359-1.109,0.842-1.507,1.408c-0.502,0.713-0.81,1.543-1.235,2.305c-1.684,3.023-5.358,4.798-8.773,4.239
					c-0.223-0.036-0.457-0.087-0.626-0.237c-0.299-0.265-0.293-0.728-0.244-1.124c0.479-3.901,2.684-7.335,4.391-10.875
					c0.562-1.165,4.951-9.835,5.164-10.121c0.093-0.124,9.679-1.826,9.977-1.838C214.521,140.507,216.25,140.282,217.444,140.13z"/>
				<g>
					<path style="fill:#B16668;" d="M138.695,152.327c2.757,1.741,24.232,15.494,24.232,15.494s19.038-7.63,22.972-9.547
						c5.419-2.641,7.331-6.229,9.039-9.366c2.45-4.499,3.215-4.685,5.557-5.952c1.454-0.787,4.771-3.074,4.891-3.15
						c0.516-0.328,1.065-0.342,1.66-0.462c0.303-0.061,1.569-0.247,1.874-0.292c1.759-0.263,2.856-0.329,4.614-0.593
						c0.541-0.081,1.088-0.162,1.634-0.126c0.117,0.008,0.241,0.024,0.334,0.096c0.178,0.14,0.158,0.415,0.094,0.632
						c-0.302,1.035-1.181,1.819-2.155,2.28c-0.974,0.462-2.05,0.65-3.106,0.867c-0.651,0.134-1.015,0.157-2.329,0.434
						c-0.329,0.069-0.681,0.205-1.388,0.794c-3.39,2.827-3.838,3.675-5.462,5.488c3.022-0.697,4.54-1.407,6.179-2.801
						c1.639-1.394,2.883,0.687,1.265,3.01c-1.862,2.675-4.355,2.865-6.74,6.468c-2.385,3.603,0.367,7.52-4.745,10.177
						c-2.203,1.065-5.085,1.955-8.379,4.354c-4.524,3.295-18.631,13.516-21.678,15.14c-6.657,3.549-7.296,3.023-20.301-4.552
						c-18.35-10.689-21.496-13.031-21.496-13.031l-2.985-23.679C127.502,145.518,129.426,146.476,138.695,152.327z"/>
				</g>
				<path style="fill:#37474F;" d="M120.149,142.807c4.36,0.554,7.216,0.554,16.619,6.565c9.056,5.79,26.121,17.989,26.121,17.989
					l6.489-2.609c0,0-0.577,3.17,1.593,7.599c2.022,4.129,5.371,6.941,5.371,6.941s-0.445,0.316-6.099,4.203
					c-5.654,3.887-8.082,4.179-9.85,4.308c-1.768,0.129-3.779-1.244-7.873-3.451c-4.094-2.207-27.481-14.043-27.481-14.043
					L120.149,142.807z"/>
				<path style="fill:#9A4A4D;" d="M201.157,148.926c-1.086,0.232-3.261,1.406-3.688,1.724c-0.427,0.318-0.195-0.902,1.619-2.061
					c1.814-1.158,3.251-0.915,3.694-1.476L201.157,148.926z"/>
			</g>
			<g>
				<path style="fill:#F5F5F5;" d="M74.064,218.862c2.39-10.089,5.469-16.476,5.292-18.681c-0.767-9.565-7.507-20.948-8.725-26.447
					c-2.653-11.976,3.698-23.018,6.35-25.598c0,0,5.076-1.91,8.52-2.987c2.07-0.648,5.759-1.498,8.933-2.174
					c7.049-1.501,10.018-1.63,12.699-1.545c1.322,0.042,7.614,0.68,7.614,0.68c1.912,0.307,5.395,0.693,5.402,0.697
					c0,0,4.542,3.211,9.066,10.118c3.453,5.272,5.517,9.739,6.88,21.45c1.735,14.909,3.842,31.581,4.57,42.02
					C128.805,224.876,90.71,227.07,74.064,218.862z"/>
				<path style="fill:#263238;" d="M78.872,99.469c-1.067,1.031-1.888,2.308-2.173,3.752c-0.382,1.937,0.22,3.979-0.239,5.899
					c-0.787,3.291-4.496,5.509-4.609,8.891c-0.129,3.847,4.545,6.892,3.735,10.655c-0.374,1.739-1.895,3.135-1.983,4.912
					c-0.103,2.092,1.778,3.692,3.535,4.831c-0.471-1.053-0.577-2.266-0.296-3.385c1.135,1.708,2.534,3.312,4.362,4.242
					c1.828,0.93,4.151,1.079,5.879-0.026c0.195-0.124,0.398-0.269,0.628-0.264c0.313,0.006,0.546,0.276,0.755,0.509
					c3.441,3.853,9.523,2.696,14.022,2.468c2.106-0.106,4.242-0.219,6.24-0.891c1.709-0.575,3.257-1.54,4.749-2.553
					c0.192-0.13,0.39-0.265,0.617-0.313c0.236-0.051,0.481-0.004,0.719,0.036c1.342,0.223,2.723,0.209,4.06-0.042
					c1.622-0.303,2.442-1.088,3.54-2.204c0.576-0.585,1.073-1.224,1.372-1.998c0.065-0.167,0.508-2.127,0.253-2.123
					c1.173-0.021,2.373-0.048,3.469-0.466c1.096-0.419,2.084-1.316,2.277-2.473c-1.268,1.181-3.544,0.346-4.311-1.208
					c-0.767-1.554-0.41-3.427,0.212-5.044c0.623-1.617,1.501-3.162,1.773-4.873c0.271-1.712-0.257-3.721-1.794-4.523
					c1.097-0.133,2.248-0.287,3.139-0.941c0.891-0.654,1.389-1.984,0.767-2.897c-0.41,0.85-1.724,0.909-2.425,0.278
					c-0.701-0.632-0.873-1.677-0.762-2.614c0.111-0.937,0.455-1.831,0.618-2.76c0.365-2.089-0.232-4.283-1.411-6.046
					c-1.179-1.762-2.906-3.114-4.8-4.066c-1.238-0.623-2.581-1.103-3.607-2.034c-1.243-1.127-2.007-2.683-3.333-3.728
					c-1.36-1.072-3.13-1.76-4.774-2.268c-3.583-1.107-7.481-1.215-11.105-0.234c-5.254,1.422-9.852,5.109-12.382,9.928
					c-1.891,0.691-3.805,1.394-5.458,2.541C79.689,98.745,79.264,99.09,78.872,99.469z"/>
				<g id="Head_00000093156680842813778700000002418101792552859267_">
					<g id="Head_00000102530065588220403250000006732665049580761752_">
						<g id="Head_00000153685359219790387070000006685723335745089162_">
							<g id="XMLID_00000052794412936897351140000005658111129601827719_">
								<g id="XMLID_00000091007537509168016520000000565806329357487261_">
									<path id="XMLID_00000091017386431303757800000005027145942133853087_" style="fill:#B16668;" d="M86.984,129.777
										c-2.247,0.584-4.488-0.366-5.978-1.758c-3.307-3.091-3.837-6.443-2.57-8.793c1.041-1.931,3.852-3.32,5.972-2.218
										c2.268,1.178,2.415,2.263,3.345,3.712c0.955,1.487,2.949,0.119,1.805-5.893c4.074-2.252,2.898-9.137,4.972-12.131
										c3.246-4.685,9.202-3.96,11.186-3.056c1.6-1.477,4.965-2.39,7.964-1.081c2.941,1.285,5.053,4.282,6.83,14.981
										c1.812,10.907,0.408,18.363-2.006,20.878c-1.66,1.73-4.886,3.053-8.835,3.113l0.321,4.138c0,0,12.198,10.819-2.368,10.807
										c-10.914-0.009-17.074-7.953-17.074-7.953l-1.291-16.645C89.257,127.878,89.119,129.223,86.984,129.777z"/>
								</g>
								<g>
									<path style="fill:#9A4A4D;" d="M110.637,126.12c-0.225,1.745-1.847,2.984-3.623,2.768c-1.776-0.216-3.034-1.805-2.809-3.55
										L110.637,126.12z"/>
									<path style="fill:#F28F8F;" d="M104.259,126.377c0.272,1.296,1.343,2.34,2.755,2.511c0.394,0.048,0.778,0.014,1.143-0.071
										C107.763,127.088,106.023,125.999,104.259,126.377z"/>
								</g>
								<g>
									<g id="XMLID_00000177461415824544267890000005554116662617546169_">
										<path id="XMLID_00000111176680112888737580000002641755956660102552_" style="fill:#263238;" d="M116.894,106.886
											l-4.277-1.063c0.266-1.185,1.44-1.908,2.621-1.614C116.42,104.503,117.161,105.702,116.894,106.886z"/>
									</g>
									<g id="XMLID_00000183231836319602867340000010330826809417789864_">
										<path id="XMLID_00000074405667165728404420000013808302659787791502_" style="fill:#263238;" d="M101.373,106.785
											l-3.994,2.508c-0.75-1.063-0.463-2.487,0.64-3.18C99.121,105.421,100.623,105.722,101.373,106.785z"/>
									</g>
									<g>
										<path style="fill:#37474F;" d="M122.256,107.639c-0.267-0.003-0.546-0.003-0.834,0.001
											c-2.687,0.036-6.159,0.359-8.162,1.202c-2.509,1.061-3.313,2.014-4.76,2.189c-1.549,0.173-2.647-0.561-5.546-0.994
											c-2.31-0.341-6,0.167-8.796,0.767c-0.3,0.065-0.59,0.131-0.867,0.197c-0.477,0.114-0.917,0.787-0.781,1.497
											c0.136,0.71,0.782,1.213,1.067,1.511c0.126,0.132,0.257,0.327,0.379,0.614c0.456,1.081,0.944,3.197,1.692,4.318
											c0.301,0.45,0.721,0.996,1.345,1.465c0.204,0.151,0.41,0.284,0.639,0.405c0.118,0.06,0.235,0.117,0.36,0.173
											c0.314,0.136,0.659,0.248,1.046,0.331c0.057,0.012,0.115,0.024,0.173,0.032c0.087,0.015,0.18,0.031,0.272,0.043
											c0.092,0.012,0.186,0.022,0.283,0.032c0.276,0.026,0.574,0.039,0.887,0.029c0.122,0,0.247-0.007,0.376-0.013
											c0.15-0.012,0.307-0.024,0.467-0.042c3.6-0.403,4.874-2.208,5.531-3.995c0.66-1.785,0.094-4.139,1.754-4.325
											c0.056-0.006,0.108-0.01,0.159-0.009c0.051-0.002,0.103,0.001,0.15,0.006c1.264,0.131,1.42,2.328,2.413,3.811
											c0.381,0.569,0.836,1.125,1.417,1.58c0.103,0.082,0.207,0.159,0.317,0.233c0.055,0.039,0.111,0.073,0.168,0.108
											c0.057,0.035,0.114,0.069,0.174,0.102c0.052,0.03,0.104,0.058,0.158,0.085c0.091,0.046,0.13,0.065,0.169,0.083
											c0.044,0.022,0.088,0.041,0.133,0.06c0.03,0.014,0.061,0.028,0.093,0.041c0.445,0.183,0.945,0.317,1.51,0.381
											c0.044,0.004,0.09,0.01,0.136,0.014c0.531,0.052,1.121,0.044,1.776-0.036c3.366-0.405,4.264-2.419,4.648-3.672
											c0.382-1.253,0.291-3.409,0.405-4.562c0.025-0.256,0.116-0.46,0.224-0.619c0.206-0.302,0.588-1.01,0.53-1.727
											C123.301,108.236,122.717,107.644,122.256,107.639z M105.873,115.924c-0.063,0.664-0.261,1.634-0.919,2.489l-0.002,0.001
											c-0.665,0.858-1.8,1.599-3.734,1.793c-1.955,0.198-3.201-0.445-4.01-1.273c-0.051-0.052-0.099-0.103-0.143-0.154
											c-0.049-0.052-0.092-0.103-0.133-0.154c-0.041-0.048-0.079-0.097-0.115-0.146c-0.033-0.043-0.066-0.088-0.096-0.133
											c-0.027-0.035-0.051-0.07-0.073-0.106c-0.024-0.032-0.045-0.064-0.064-0.095c-0.034-0.053-0.069-0.107-0.101-0.16l0-0.002
											c-0.098-0.161-0.183-0.317-0.257-0.471c-0.003-0.003-0.003-0.007-0.006-0.011c-0.047-0.097-0.093-0.193-0.134-0.284
											c-0.074-0.166-0.137-0.323-0.19-0.461c-0.011-0.03-0.023-0.061-0.034-0.089c-0.011-0.028-0.023-0.056-0.033-0.085
											c-0.442-1.144-1.096-3.417-0.551-4.01c0.526-0.571,2.105-1.323,4.819-1.385c0.091-0.007,0.189-0.007,0.289-0.007
											c0.417-0.001,0.836,0.017,1.252,0.059c0.165,0.015,0.329,0.035,0.49,0.056c0.435,0.058,0.858,0.135,1.244,0.231
											c0.134,0.032,0.263,0.067,0.385,0.102c0.147,0.041,0.287,0.087,0.421,0.134c0.028,0.009,0.056,0.019,0.084,0.031
											c0.054,0.018,0.105,0.037,0.155,0.06c0.399,0.156,0.709,0.337,0.889,0.523
											C105.939,113.036,105.993,114.58,105.873,115.924z M121.426,113.613c-0.078,0.942-0.246,2.975-2.002,4.06
											c-0.5,0.309-1.136,0.542-1.934,0.645c-2.117,0.284-3.435-0.416-4.252-1.298c-0.005-0.005-0.011-0.011-0.014-0.016
											c-0.032-0.034-0.062-0.067-0.089-0.099c-0.035-0.039-0.068-0.079-0.098-0.116c-0.016-0.019-0.033-0.04-0.049-0.061
											c-0.044-0.057-0.089-0.117-0.129-0.174c-0.048-0.068-0.094-0.135-0.137-0.205c-0.023-0.032-0.043-0.066-0.064-0.1
											c-0.012-0.02-0.022-0.038-0.033-0.057c-0.018-0.029-0.033-0.057-0.048-0.085c-0.012-0.023-0.026-0.045-0.036-0.066
											c-0.167-0.304-0.289-0.595-0.381-0.847c-0.458-1.276-0.818-2.783-0.415-3.564c0.403-0.781,2.268-1.801,4.139-2.247
											c0.431-0.103,0.838-0.178,1.219-0.23c0.049-0.006,0.099-0.013,0.146-0.018c0.054-0.007,0.106-0.013,0.157-0.018
											c0.146-0.017,0.29-0.028,0.428-0.038c0.052-0.004,0.104-0.007,0.156-0.009c0.07-0.003,0.138-0.006,0.204-0.007
											c0.116-0.005,0.23-0.005,0.34-0.003c0.224,0.002,0.435,0.013,0.632,0.034c0.051,0.005,0.102,0.01,0.151,0.017
											c0.011,0,0.025,0.002,0.039,0.005c0.033,0.004,0.067,0.007,0.103,0.014c0.051,0.006,0.104,0.016,0.154,0.024
											c0.063,0.009,0.127,0.023,0.186,0.035c0.11,0.023,0.211,0.048,0.307,0.077c0.019,0.005,0.036,0.009,0.055,0.016
											c0.309,0.091,0.548,0.204,0.717,0.321C121.524,110.055,121.523,112.407,121.426,113.613z"/>
										<g id="XMLID_00000178199696873082559930000014424739344162743484_">
											<path style="fill:#9A4A4D;" d="M115.206,120.233l-5.948,3.049l-1.866-7.646c0.14-1.17,0.281-2.376,1.281-2.544
												L115.206,120.233z"/>
										</g>
										<path style="fill:#37474F;" d="M93.549,111.882l-9.141,5.126c0.504,0.28,0.798,0.465,1.545,1.046l7.976-4.263
											L93.549,111.882z"/>
									</g>
								</g>
							</g>
						</g>
					</g>
					<path style="fill:#9A4A4D;" d="M109.669,137.531c-5.682,0.201-13.422-1.233-15.717-4.675c1.41,3.788,5.548,5.505,8.797,6.155
						c3.949,0.789,7.031,0.68,7.031,0.68L109.669,137.531z"/>
					<path style="fill:#263238;" d="M102.716,114.352c0.107,0.924-0.556,1.759-1.48,1.866c-0.924,0.107-1.759-0.556-1.866-1.48
						c-0.107-0.924,0.556-1.759,1.48-1.866C101.774,112.766,102.609,113.428,102.716,114.352z"/>
					<path style="fill:#263238;" d="M116.937,113.091c0.107,0.924-0.556,1.759-1.48,1.866c-0.924,0.107-1.759-0.556-1.866-1.48
						c-0.107-0.924,0.556-1.759,1.48-1.866C115.995,111.505,116.831,112.167,116.937,113.091z"/>
				</g>
			</g>
			<g id="Like_icon">
				<g id="XMLID_260_">
					<g id="XMLID_16767_">
						<path id="XMLID_2003_" style="fill:#BA68C8;" d="M212.388,120.896c-4.414-2.16-11.424,2.899-11.424,5.002l-13.489-7.578
							c0-2.16,7.578-7.578,11.955-4.717L212.388,120.896z"/>
						<path id="XMLID_00000069359008475989443830000005177980705655067270_" style="opacity:0.3;fill:#FFFFFF;" d="M212.388,120.896
							c-4.414-2.16-11.424,2.899-11.424,5.002l-13.489-7.578c0-2.16,7.578-7.578,11.955-4.717L212.388,120.896z"/>
						<path id="XMLID_2029_" style="fill:#BA68C8;" d="M247.361,132.813v0.019c-1.193-0.625-2.861-0.587-5.002,0.663l-25.766,14.891
							c1.194-5.968,1.553-11.102,0.871-15.857l11.443-6.631c2.368-1.383,4.149-1.269,5.381-0.436L247.361,132.813z"/>
						<path id="XMLID_00000056414443067323399990000015040629657225029540_" style="opacity:0.3;fill:#FFFFFF;" d="M247.361,132.813
							v0.019c-1.193-0.625-2.861-0.587-5.002,0.663l-25.766,14.891c1.194-5.968,1.553-11.102,0.871-15.857l11.443-6.631
							c2.368-1.383,4.149-1.269,5.381-0.436L247.361,132.813z"/>
					</g>
					<g id="XMLID_16745_">
						<polygon id="XMLID_2564_" style="fill:#BA68C8;" points="188.198,232.064 174.713,224.279 174.713,168.634 188.198,176.421 
													"/>
					</g>
					<g id="XMLID_00000140729936780311856450000013325585060196810145_" style="opacity:0.2;">
						<polygon id="XMLID_00000052822252011027350250000016579824436518287007_" points="188.198,232.064 174.713,224.279 
							174.713,168.634 188.198,176.421 						"/>
					</g>
					<g id="XMLID_16703_">
						<path id="XMLID_1984_" style="fill:#BA68C8;" d="M200.963,145.847c-1.08,3.884-12.765,30.574-12.765,30.574l-13.485-7.788
							c0,0,11.662-26.5,12.799-30.365c1.08-3.865-0.038-17.373-0.038-19.95l13.489,7.578
							C200.963,128.493,202.1,142.001,200.963,145.847z"/>
					</g>
					<g>
						<path style="fill:#FFFFFF;" d="M188.698,176.526c0.544-1.244,6.194-14.188,9.789-22.891l0.038-0.092v-0.01
							c0.829-2.004,1.55-3.792,2.091-5.165c0.428-1.142,0.698-1.919,0.827-2.383c0.391-1.322,0.563-3.846,0.512-7.494
							c-0.019-1.66-0.08-3.583-0.187-5.878c-0.042-0.995-0.089-1.942-0.132-2.804l-0.065-1.338
							c-0.051-0.908-0.109-2.016-0.109-2.574c0-0.287,0.273-0.865,1.037-1.63c1.677-1.685,4.78-3.39,7.469-3.39
							c0.82,0,1.561,0.159,2.204,0.473c0.986,0.488,1.731,1.309,2.273,2.507c1.282,2.81,2.107,5.667,2.524,8.737
							c0.644,4.506,0.371,9.491-0.86,15.691l-0.215,1.083l26.717-15.444c1.123-0.656,2.153-0.989,3.063-0.989
							c0.531,0,1.019,0.115,1.453,0.341c1.664,0.837,2.405,3.165,2.405,5.102c0.035,5.385-3.363,9.941-4.045,10.8l-0.973,1.226
							l1.504-0.435c0.004-0.001,0.433-0.123,1.015-0.123c1.594,0,3.495,0.87,3.495,5.012c0,3.516-2.136,9.007-6.096,12.259
							l-0.488,0.401l0.503,0.383c0.009,0.007,1.501,1.274,1.501,5.706c0,3.007-3.52,10.427-6.982,12.432l-0.401,0.232l0.201,0.418
							c0.01,0.022,1.046,2.219,1.046,5.919c0.031,4.359-3.661,11.168-9.206,14.36c-5.098,2.95-36.624,21.178-41.907,24.232V176.526z
							"/>
						<path style="fill:#BA68C8;" d="M209.968,121.377L209.968,121.377c0.743,0,1.411,0.142,1.979,0.42
							c0.881,0.436,1.549,1.177,2.043,2.269c1.261,2.763,2.073,5.575,2.484,8.602c0.635,4.446,0.363,9.377-0.857,15.52l-0.43,2.165
							l1.911-1.105l25.766-14.894c1.043-0.61,1.988-0.919,2.808-0.919c0.449,0,0.86,0.096,1.235,0.292
							c1.466,0.738,2.123,2.868,2.123,4.658c0.034,5.215-3.273,9.647-3.936,10.483l-1.917,2.421l2.977-0.839
							c0.004-0.001,0.374-0.104,0.878-0.104c1.988,0,2.995,1.518,2.995,4.512c0,3.401-2.072,8.718-5.913,11.873l-1.003,0.782
							l1.006,0.766c0.013,0.012,1.33,1.212,1.33,5.329c0,2.833-3.461,10.105-6.733,11.999l-0.797,0.466l0.396,0.833
							c0.01,0.021,0.997,2.137,0.997,5.71c0.03,4.215-3.561,10.814-8.957,13.92c-4.895,2.833-34.16,19.754-41.155,23.798V176.63
							c0.743-1.701,6.231-14.283,9.751-22.804l0.074-0.19c0.756-1.828,1.484-3.628,2.064-5.1c0.43-1.147,0.704-1.937,0.833-2.402
							c0.413-1.396,0.587-3.899,0.534-7.647c-0.019-1.664-0.08-3.593-0.187-5.894c-0.042-0.995-0.089-1.941-0.132-2.801
							l-0.066-1.354c-0.05-0.898-0.108-1.998-0.108-2.539c0.005-0.106,0.18-0.568,0.892-1.28
							C204.457,123.007,207.415,121.377,209.968,121.377 M209.968,120.377c-2.901,0-6.128,1.834-7.823,3.537
							c-0.734,0.734-1.184,1.457-1.184,1.983c0,0.504,0.044,1.424,0.11,2.597c0.055,1.173,0.132,2.597,0.197,4.142
							c0.088,1.885,0.164,3.923,0.186,5.862c0.044,3.09-0.066,5.906-0.493,7.353c-0.131,0.471-0.416,1.282-0.811,2.334
							c-0.548,1.392-1.282,3.211-2.126,5.249c0,0.011,0,0.011,0,0.011c-3.802,9.205-9.827,22.977-9.827,22.977v55.645
							c0,0,37.09-21.444,42.656-24.666c5.577-3.211,9.49-10.147,9.456-14.793c0-3.879-1.096-6.136-1.096-6.136
							c3.616-2.093,7.232-9.654,7.232-12.865c0-4.811-1.699-6.104-1.699-6.104c3.923-3.222,6.279-8.755,6.279-12.645
							c0-4.78-2.477-5.512-3.995-5.512c-0.671,0-1.155,0.143-1.155,0.143c1.392-1.753,4.186-6.104,4.153-11.111
							c0-2.126-0.822-4.613-2.674-5.545c-0.484-0.253-1.045-0.398-1.684-0.398c-0.938,0-2.042,0.313-3.313,1.056l-25.762,14.892
							c1.183-5.961,1.545-11.1,0.866-15.856c-0.417-3.068-1.249-5.994-2.564-8.876c-0.624-1.381-1.49-2.246-2.509-2.75
							C211.642,120.534,210.819,120.377,209.968,120.377L209.968,120.377z"/>
					</g>
				</g>
				<g>
					<path id="XMLID_833_" style="fill:#BA68C8;" d="M182.056,181.193c0-0.796-0.284-1.648-0.72-2.425
						c-0.455-0.758-1.061-1.44-1.743-1.837l-8.563-4.945c-1.364-0.777-3.543-0.777-4.907,0h-0.019l-13.66,7.9
						c-0.682,0.398-1.307,1.08-1.743,1.838c-0.436,0.777-0.72,1.648-0.72,2.425v59.091c0,1.572,1.099,3.486,2.463,4.263l8.563,4.945
						c0.682,0.398,1.573,0.587,2.463,0.587c0.89,0,1.762-0.189,2.444-0.568c0-0.019,0.019-0.019,0.019-0.019l13.698-7.919
						c1.364-0.777,2.463-2.672,2.463-4.244v-0.019L182.056,181.193z"/>
					<path id="XMLID_871_" style="opacity:0.2;" d="M163.47,189.093v63.941c-0.89,0-1.781-0.189-2.463-0.587l-8.563-4.945
						c-1.364-0.777-2.463-2.69-2.463-4.263v-59.091c0-0.777,0.284-1.648,0.72-2.425L163.47,189.093z"/>
					<path id="XMLID_874_" style="opacity:0.3;fill:#FFFFFF;" d="M181.336,178.767l-17.866,10.325l-12.769-7.37
						c0.436-0.758,1.061-1.44,1.743-1.838l13.66-7.9h0.019c1.364-0.777,3.543-0.777,4.907,0l8.563,4.945
						C180.275,177.327,180.881,178.01,181.336,178.767z"/>
				</g>
			</g>
			<g id="Arm_4_">
				<path style="fill:#B16668;" d="M76.455,148.971c-8.495,3.451-10.457,11.771-5.74,21.095
					c4.134,8.172,22.996,27.066,25.585,30.344c2.589,3.277,4.698,4.373,11.205,6.91c6.507,2.537,23.758,7.281,28.778,8.778
					c5.02,1.497,8.27,4.329,13.05,6.411c4.781,2.082,11.317,1.788,14.591,1.169c1.453-0.275,2.862-1.486,4.116-3.068
					c2.287-0.646,2.581-1.585,2.409-2.383c2.027-0.328,2.881-0.884,2.098-2.273c-1.633-2.899-7.115-2.34-12.139-3.344
					c-4.794-0.958-8.59-2.948-7.389-3.608c2.418-1.329,6.464,0.167,10.121-2.01c2.145-1.277,1.729-3.178,0.701-3.128
					c-1.919,0.093-5.7-1.08-10.387-1.184c-4.271-0.095-9.591,1.696-12.732,0.492c-7.352-2.817-29.458-13.667-29.458-13.667
					l-21.84-26.361C89.425,163.144,85.031,151.974,76.455,148.971z"/>
				<path style="fill:#37474F;" d="M118.971,193.242l-7.435-4.098l-21.152-26.182c0,0-5.958-13.07-13.402-14.829
					c-6.637,2.779-8.973,6.76-9.842,9.979c-0.544,2.014-1.406,11.072,4.5,18.803c6.895,9.026,17.788,19.877,21.886,23.798
					c3.056,2.924,5.389,3.633,10.145,5.396c4.756,1.764,8.26,2.762,8.26,2.762C116.555,204.681,119.269,199.635,118.971,193.242z"/>
			</g>
		</g>
	</g>
</g>
<g id="Speech_Bubble_1">
	<g id="Speech_Bubble_00000158726824094754789570000004678195739168798094_">
		<g id="Speech_Bubble_2_">
			<path style="fill:#FFFFFF;" d="M145.667,59.542c-4.249,5.113-6.119,11.422-5.757,17.589l0.335,2.865
				c0.992,5.686,3.92,11.067,8.7,15.039c10.687,8.882,26.608,7.414,35.49-3.273c3.972-4.779,5.867-10.605,5.802-16.377l-0.195-2.878
				c-0.773-6.129-3.765-11.99-8.877-16.239C170.473,47.383,154.552,48.851,145.667,59.542z"/>
			<path style="fill:#455A64;" d="M144.052,58.139c-8.663,10.386-8.288,25.353,0.238,35.296l-2.716,8.048
				c-0.464,1.374,1.006,2.6,2.274,1.897l7.429-4.116c11.312,6.606,26.104,4.29,34.768-6.097c9.657-11.577,8.094-28.854-3.483-38.511
				C170.986,44.999,153.709,46.562,144.052,58.139z M181.195,56.296c5.105,4.258,8.086,10.124,8.848,16.255l0.19,2.878
				c0.055,5.771-1.85,11.594-5.831,16.366c-8.901,10.671-24.825,12.111-35.495,3.211c-4.772-3.98-7.692-9.367-8.673-15.054
				l-0.33-2.866c-0.35-6.167,1.53-12.474,5.788-17.578C154.596,48.832,170.52,47.392,181.195,56.296z"/>
		</g>
		<g id="Check_00000137852189265647198930000009513907969377866152_">
			<path style="fill:#BA68C8;" d="M161.392,90.919c-1.043,0-2.043-0.431-2.759-1.196l-8.566-9.147
				c-1.426-1.523-1.348-3.915,0.175-5.342c1.524-1.427,3.915-1.347,5.342,0.175l5.563,5.941l13.163-16.673
				c1.292-1.639,3.667-1.919,5.308-0.625c1.639,1.294,1.918,3.67,0.625,5.308l-15.885,20.12c-0.682,0.865-1.707,1.388-2.807,1.434
				C161.498,90.918,161.444,90.919,161.392,90.919z"/>
		</g>
	</g>
</g>
</svg>
